  0
SECTION
  2
HEADER
  9
$ACADVER
  1
AC1006
  9
$EXTMIN
 10
-3.403394
 20
-3.027299
  9
$EXTMAX
 10
3.323390
 20
3.707480
  9
$LTSCALE
 40
0.000394
  9
$PDMODE
 70
    35
  9
$PDSIZE
 40
0.000315
  0
ENDSEC
  0
SECTION
  2
TABLES
  0
TABLE
  2
LTYPE
 70
     9
  0
LTYPE
  2
CONTINUOUS
 70
    64
  3
Solid line
 72
    65
 73
     0
 40
0.000000
  0
LTYPE
  2
DASHED
 70
    64
  3
__ __ __ __ __ __ __ __ __ __ __ __ __ __ __
 72
    65
 73
     2
 40
0.000003
 49
0.000002
 49
-0.000001
  0
LTYPE
  2
HIDDEN
 70
    64
  3
 _ _ _ _ _ _ _ _ _ _ _ _ _ _ _ _ _ _ _ _ _ _
 72
    65
 73
     2
 40
0.000001
 49
0.000001
 49
-0.000000
  0
LTYPE
  2
CENTER
 70
    64
  3
____ _ ____ _ ____ _ ____ _ ____ _ ____ _ ____
 72
    65
 73
     4
 40
0.000008
 49
0.000005
 49
-0.000001
 49
0.000001
 49
-0.000001
  0
LTYPE
  2
PHANTOM
 70
    64
  3
_____ _ _ _____ _ _ _____ _ _ _____ _ _ ____
 72
    65
 73
     6
 40
0.000010
 49
0.000005
 49
-0.000001
 49
0.000001
 49
-0.000001
 49
0.000001
 49
-0.000001
  0
LTYPE
  2
DOT
 70
    64
  3
...............................................
 72
    65
 73
     2
 40
0.000001
 49
0.000000
 49
-0.000001
  0
LTYPE
  2
DASHDOT
 70
    64
  3
__ . __ . __ . __ . __ . __ . __ . __ . __ . __
 72
    65
 73
     4
 40
0.000004
 49
0.000002
 49
-0.000001
 49
0.000000
 49
-0.000001
  0
LTYPE
  2
BORDER
 70
    64
  3
__ __ . __ __ . __ __ . __ __ . __ __ . __ __
 72
    65
 73
     6
 40
0.000007
 49
0.000002
 49
-0.000001
 49
0.000002
 49
-0.000001
 49
0.000000
 49
-0.000001
  0
LTYPE
  2
DIVIDE
 70
    64
  3
__ . . __ . . __ . . __ . . __ . . __ . . __
 72
    65
 73
     6
 40
0.000005
 49
0.000002
 49
-0.000001
 49
0.000000
 49
-0.000001
 49
0.000000
 49
-0.000001
  0
LTYPE
  2
DOTDOT
 70
    64
  3
 . .  . .  . .  . .  . .  . . 
 72
    65
 73
     5
 40
0.000002
 49
-0.000001
 49
0.000000
 49
-0.000001
 49
0.000000
 49
-0.000001
  0
ENDTAB
  0
TABLE
  2
STYLE
 70
     0
  0
ENDTAB
  0
TABLE
  2
LAYER
 70
     3
  0
LAYER
  2
FOREGROUND
 70
    64
 62
     7
  6
CONTINUOUS
  0
LAYER
  2
BACKGROUND
 70
    65
 62
    -7
  6
CONTINUOUS
  0
LAYER
  2
央铋_1
 70
    64
 62
     7
  6
CONTINUOUS
  0
ENDTAB
  0
ENDSEC
  0
SECTION
  2
ENTITIES
  0
POLYLINE
  8
央铋_1
 62
    39
  6
CONTINUOUS
 66
     1
 40
0.003000
 41
0.003000
 70
     1
  0
VERTEX
  8
央铋_1
 62
    39
  6
CONTINUOUS
 10
-2.415772
 20
-1.103067
  0
VERTEX
  8
央铋_1
 62
    39
  6
CONTINUOUS
 10
-2.412643
 20
-1.100991
  0
VERTEX
  8
央铋_1
 62
    39
  6
CONTINUOUS
 10
-2.403801
 20
-1.096316
  0
VERTEX
  8
央铋_1
 62
    39
  6
CONTINUOUS
 10
-2.390062
 20
-1.091368
  0
VERTEX
  8
央铋_1
 62
    39
  6
CONTINUOUS
 10
-2.372243
 20
-1.088474
  0
VERTEX
  8
央铋_1
 62
    39
  6
CONTINUOUS
 10
-2.351158
 20
-1.089962
  0
VERTEX
  8
央铋_1
 62
    39
  6
CONTINUOUS
 10
-2.327625
 20
-1.098157
  0
VERTEX
  8
央铋_1
 62
    39
  6
CONTINUOUS
 10
-2.302460
 20
-1.115387
  0
VERTEX
  8
央铋_1
 62
    39
  6
CONTINUOUS
 10
-2.276479
 20
-1.143980
  0
VERTEX
  8
央铋_1
 62
    39
  6
CONTINUOUS
 10
-2.250498
 20
-1.186261
  0
VERTEX
  8
央铋_1
 62
    39
  6
CONTINUOUS
 10
-2.225333
 20
-1.244558
  0
VERTEX
  8
央铋_1
 62
    39
  6
CONTINUOUS
 10
-2.201800
 20
-1.321198
  0
VERTEX
  8
央铋_1
 62
    39
  6
CONTINUOUS
 10
-2.180717
 20
-1.418508
  0
VERTEX
  8
央铋_1
 62
    39
  6
CONTINUOUS
 10
-2.171834
 20
-1.482094
  0
VERTEX
  8
央铋_1
 62
    39
  6
CONTINUOUS
 10
-2.168416
 20
-1.542799
  0
VERTEX
  8
央铋_1
 62
    39
  6
CONTINUOUS
 10
-2.170051
 20
-1.600697
  0
VERTEX
  8
央铋_1
 62
    39
  6
CONTINUOUS
 10
-2.176329
 20
-1.655861
  0
VERTEX
  8
央铋_1
 62
    39
  6
CONTINUOUS
 10
-2.186838
 20
-1.708365
  0
VERTEX
  8
央铋_1
 62
    39
  6
CONTINUOUS
 10
-2.201167
 20
-1.758282
  0
VERTEX
  8
央铋_1
 62
    39
  6
CONTINUOUS
 10
-2.218904
 20
-1.805687
  0
VERTEX
  8
央铋_1
 62
    39
  6
CONTINUOUS
 10
-2.239637
 20
-1.850653
  0
VERTEX
  8
央铋_1
 62
    39
  6
CONTINUOUS
 10
-2.262957
 20
-1.893254
  0
VERTEX
  8
央铋_1
 62
    39
  6
CONTINUOUS
 10
-2.288450
 20
-1.933563
  0
VERTEX
  8
央铋_1
 62
    39
  6
CONTINUOUS
 10
-2.315707
 20
-1.971654
  0
VERTEX
  8
央铋_1
 62
    39
  6
CONTINUOUS
 10
-2.344315
 20
-2.007602
  0
VERTEX
  8
央铋_1
 62
    39
  6
CONTINUOUS
 10
-2.373863
 20
-2.041479
  0
VERTEX
  8
央铋_1
 62
    39
  6
CONTINUOUS
 10
-2.403940
 20
-2.073360
  0
VERTEX
  8
央铋_1
 62
    39
  6
CONTINUOUS
 10
-2.434134
 20
-2.103317
  0
VERTEX
  8
央铋_1
 62
    39
  6
CONTINUOUS
 10
-2.464035
 20
-2.131426
  0
VERTEX
  8
央铋_1
 62
    39
  6
CONTINUOUS
 10
-2.493231
 20
-2.157759
  0
VERTEX
  8
央铋_1
 62
    39
  6
CONTINUOUS
 10
-2.521310
 20
-2.182390
  0
VERTEX
  8
央铋_1
 62
    39
  6
CONTINUOUS
 10
-2.547861
 20
-2.205393
  0
VERTEX
  8
央铋_1
 62
    39
  6
CONTINUOUS
 10
-2.572472
 20
-2.226843
  0
VERTEX
  8
央铋_1
 62
    39
  6
CONTINUOUS
 10
-2.604238
 20
-2.253159
  0
VERTEX
  8
央铋_1
 62
    39
  6
CONTINUOUS
 10
-2.640362
 20
-2.280023
  0
VERTEX
  8
央铋_1
 62
    39
  6
CONTINUOUS
 10
-2.680227
 20
-2.306917
  0
VERTEX
  8
央铋_1
 62
    39
  6
CONTINUOUS
 10
-2.723215
 20
-2.333323
  0
VERTEX
  8
央铋_1
 62
    39
  6
CONTINUOUS
 10
-2.768709
 20
-2.358725
  0
VERTEX
  8
央铋_1
 62
    39
  6
CONTINUOUS
 10
-2.816093
 20
-2.382607
  0
VERTEX
  8
央铋_1
 62
    39
  6
CONTINUOUS
 10
-2.864749
 20
-2.404450
  0
VERTEX
  8
央铋_1
 62
    39
  6
CONTINUOUS
 10
-2.914061
 20
-2.423739
  0
VERTEX
  8
央铋_1
 62
    39
  6
CONTINUOUS
 10
-2.963411
 20
-2.439956
  0
VERTEX
  8
央铋_1
 62
    39
  6
CONTINUOUS
 10
-3.012182
 20
-2.452584
  0
VERTEX
  8
央铋_1
 62
    39
  6
CONTINUOUS
 10
-3.059757
 20
-2.461106
  0
VERTEX
  8
央铋_1
 62
    39
  6
CONTINUOUS
 10
-3.105519
 20
-2.465006
  0
VERTEX
  8
央铋_1
 62
    39
  6
CONTINUOUS
 10
-3.148851
 20
-2.463767
  0
VERTEX
  8
央铋_1
 62
    39
  6
CONTINUOUS
 10
-3.189135
 20
-2.456871
  0
VERTEX
  8
央铋_1
 62
    39
  6
CONTINUOUS
 10
-3.225755
 20
-2.443802
  0
VERTEX
  8
央铋_1
 62
    39
  6
CONTINUOUS
 10
-3.258094
 20
-2.424043
  0
VERTEX
  8
央铋_1
 62
    39
  6
CONTINUOUS
 10
-3.346976
 20
-2.347029
  0
VERTEX
  8
央铋_1
 62
    39
  6
CONTINUOUS
 10
-3.386559
 20
-2.298633
  0
VERTEX
  8
央铋_1
 62
    39
  6
CONTINUOUS
 10
-3.396149
 20
-2.273513
  0
VERTEX
  8
央铋_1
 62
    39
  6
CONTINUOUS
 10
-3.395055
 20
-2.266327
  0
VERTEX
  8
央铋_1
 62
    39
  6
CONTINUOUS
 10
-3.397753
 20
-2.258224
  0
VERTEX
  8
央铋_1
 62
    39
  6
CONTINUOUS
 10
-3.402185
 20
-2.235293
  0
VERTEX
  8
央铋_1
 62
    39
  6
CONTINUOUS
 10
-3.402857
 20
-2.199604
  0
VERTEX
  8
央铋_1
 62
    39
  6
CONTINUOUS
 10
-3.394278
 20
-2.153225
  0
VERTEX
  8
央铋_1
 62
    39
  6
CONTINUOUS
 10
-3.370953
 20
-2.098223
  0
VERTEX
  8
央铋_1
 62
    39
  6
CONTINUOUS
 10
-3.327389
 20
-2.036667
  0
VERTEX
  8
央铋_1
 62
    39
  6
CONTINUOUS
 10
-3.258094
 20
-1.970626
  0
VERTEX
  8
央铋_1
 62
    39
  6
CONTINUOUS
 10
-3.207425
 20
-1.931700
  0
VERTEX
  8
央铋_1
 62
    39
  6
CONTINUOUS
 10
-3.161785
 20
-1.899707
  0
VERTEX
  8
央铋_1
 62
    39
  6
CONTINUOUS
 10
-3.120382
 20
-1.872780
  0
VERTEX
  8
央铋_1
 62
    39
  6
CONTINUOUS
 10
-3.082425
 20
-1.849051
  0
VERTEX
  8
央铋_1
 62
    39
  6
CONTINUOUS
 10
-3.047120
 20
-1.826655
  0
VERTEX
  8
央铋_1
 62
    39
  6
CONTINUOUS
 10
-3.013674
 20
-1.803725
  0
VERTEX
  8
央铋_1
 62
    39
  6
CONTINUOUS
 10
-2.981296
 20
-1.778392
  0
VERTEX
  8
央铋_1
 62
    39
  6
CONTINUOUS
 10
-2.949191
 20
-1.748791
  0
VERTEX
  8
央铋_1
 62
    39
  6
CONTINUOUS
 10
-2.916569
 20
-1.713055
  0
VERTEX
  8
央铋_1
 62
    39
  6
CONTINUOUS
 10
-2.882635
 20
-1.669316
  0
VERTEX
  8
央铋_1
 62
    39
  6
CONTINUOUS
 10
-2.846598
 20
-1.615709
  0
VERTEX
  8
央铋_1
 62
    39
  6
CONTINUOUS
 10
-2.790453
 20
-1.527740
  0
VERTEX
  8
央铋_1
 62
    39
  6
CONTINUOUS
 10
-2.740104
 20
-1.450473
  0
VERTEX
  8
央铋_1
 62
    39
  6
CONTINUOUS
 10
-2.696586
 20
-1.384939
  0
VERTEX
  8
央铋_1
 62
    39
  6
CONTINUOUS
 10
-2.660935
 20
-1.332172
  0
VERTEX
  8
央铋_1
 62
    39
  6
CONTINUOUS
 10
-2.634188
 20
-1.293202
  0
VERTEX
  8
央铋_1
 62
    39
  6
CONTINUOUS
 10
-2.617380
 20
-1.269063
  0
VERTEX
  8
央铋_1
 62
    39
  6
CONTINUOUS
 10
-2.611547
 20
-1.260787
  0
SEQEND
  8
0
  0
POLYLINE
  8
央铋_1
 62
    39
  6
CONTINUOUS
 66
     1
 40
0.003000
 41
0.003000
 70
     1
  0
VERTEX
  8
央铋_1
 62
    39
  6
CONTINUOUS
 10
-2.964228
 20
-0.058252
  0
VERTEX
  8
央铋_1
 62
    39
  6
CONTINUOUS
 10
-2.976167
 20
-0.066297
  0
VERTEX
  8
央铋_1
 62
    39
  6
CONTINUOUS
 10
-3.006955
 20
-0.088825
  0
VERTEX
  8
央铋_1
 62
    39
  6
CONTINUOUS
 10
-3.049052
 20
-0.123420
  0
VERTEX
  8
央铋_1
 62
    39
  6
CONTINUOUS
 10
-3.094920
 20
-0.167670
  0
VERTEX
  8
央铋_1
 62
    39
  6
CONTINUOUS
 10
-3.137018
 20
-0.219161
  0
VERTEX
  8
央铋_1
 62
    39
  6
CONTINUOUS
 10
-3.167806
 20
-0.275478
  0
VERTEX
  8
央铋_1
 62
    39
  6
CONTINUOUS
 10
-3.179744
 20
-0.334209
  0
VERTEX
  8
央铋_1
 62
    39
  6
CONTINUOUS
 10
-3.176842
 20
-0.380805
  0
VERTEX
  8
央铋_1
 62
    39
  6
CONTINUOUS
 10
-3.168137
 20
-0.428063
  0
VERTEX
  8
央铋_1
 62
    39
  6
CONTINUOUS
 10
-3.153627
 20
-0.475166
  0
VERTEX
  8
央铋_1
 62
    39
  6
CONTINUOUS
 10
-3.133314
 20
-0.521300
  0
VERTEX
  8
央铋_1
 62
    39
  6
CONTINUOUS
 10
-3.107197
 20
-0.565648
  0
VERTEX
  8
央铋_1
 62
    39
  6
CONTINUOUS
 10
-3.075276
 20
-0.607395
  0
VERTEX
  8
央铋_1
 62
    39
  6
CONTINUOUS
 10
-3.037551
 20
-0.645725
  0
VERTEX
  8
央铋_1
 62
    39
  6
CONTINUOUS
 10
-2.994022
 20
-0.679822
  0
VERTEX
  8
央铋_1
 62
    39
  6
CONTINUOUS
 10
-2.944689
 20
-0.708870
  0
VERTEX
  8
央铋_1
 62
    39
  6
CONTINUOUS
 10
-2.944689
 20
-0.708870
  0
VERTEX
  8
央铋_1
 62
    39
  6
CONTINUOUS
 10
-2.904198
 20
-0.723394
  0
VERTEX
  8
央铋_1
 62
    39
  6
CONTINUOUS
 10
-2.867494
 20
-0.725484
  0
VERTEX
  8
央铋_1
 62
    39
  6
CONTINUOUS
 10
-2.833520
 20
-0.717363
  0
VERTEX
  8
央铋_1
 62
    39
  6
CONTINUOUS
 10
-2.801219
 20
-0.701248
  0
VERTEX
  8
央铋_1
 62
    39
  6
CONTINUOUS
 10
-2.769535
 20
-0.679362
  0
VERTEX
  8
央铋_1
 62
    39
  6
CONTINUOUS
 10
-2.737411
 20
-0.653923
  0
VERTEX
  8
央铋_1
 62
    39
  6
CONTINUOUS
 10
-2.703789
 20
-0.627152
  0
VERTEX
  8
央铋_1
 62
    39
  6
CONTINUOUS
 10
-2.667613
 20
-0.601269
  0
VERTEX
  8
央铋_1
 62
    39
  6
CONTINUOUS
 10
-2.627826
 20
-0.578494
  0
VERTEX
  8
央铋_1
 62
    39
  6
CONTINUOUS
 10
-2.583372
 20
-0.561048
  0
VERTEX
  8
央铋_1
 62
    39
  6
CONTINUOUS
 10
-2.533193
 20
-0.551150
  0
VERTEX
  8
央铋_1
 62
    39
  6
CONTINUOUS
 10
-2.495881
 20
-0.548391
  0
VERTEX
  8
央铋_1
 62
    39
  6
CONTINUOUS
 10
-2.450064
 20
-0.546628
  0
VERTEX
  8
央铋_1
 62
    39
  6
CONTINUOUS
 10
-2.397032
 20
-0.545758
  0
VERTEX
  8
央铋_1
 62
    39
  6
CONTINUOUS
 10
-2.338075
 20
-0.545680
  0
VERTEX
  8
央铋_1
 62
    39
  6
CONTINUOUS
 10
-2.274481
 20
-0.546292
  0
VERTEX
  8
央铋_1
 62
    39
  6
CONTINUOUS
 10
-2.207542
 20
-0.547494
  0
VERTEX
  8
央铋_1
 62
    39
  6
CONTINUOUS
 10
-2.138545
 20
-0.549183
  0
VERTEX
  8
央铋_1
 62
    39
  6
CONTINUOUS
 10
-2.068783
 20
-0.551258
  0
VERTEX
  8
央铋_1
 62
    39
  6
CONTINUOUS
 10
-1.999543
 20
-0.553617
  0
VERTEX
  8
央铋_1
 62
    39
  6
CONTINUOUS
 10
-1.932116
 20
-0.556159
  0
VERTEX
  8
央铋_1
 62
    39
  6
CONTINUOUS
 10
-1.867791
 20
-0.558782
  0
VERTEX
  8
央铋_1
 62
    39
  6
CONTINUOUS
 10
-1.807859
 20
-0.561385
  0
VERTEX
  8
央铋_1
 62
    39
  6
CONTINUOUS
 10
-1.753608
 20
-0.563866
  0
VERTEX
  8
央铋_1
 62
    39
  6
CONTINUOUS
 10
-1.706329
 20
-0.566124
  0
VERTEX
  8
央铋_1
 62
    39
  6
CONTINUOUS
 10
-1.667312
 20
-0.568057
  0
VERTEX
  8
央铋_1
 62
    39
  6
CONTINUOUS
 10
-1.637845
 20
-0.569563
  0
VERTEX
  8
央铋_1
 62
    39
  6
CONTINUOUS
 10
-1.619220
 20
-0.570541
  0
VERTEX
  8
央铋_1
 62
    39
  6
CONTINUOUS
 10
-1.612724
 20
-0.570890
  0
VERTEX
  8
央铋_1
 62
    39
  6
CONTINUOUS
 10
1.247189
 20
-0.570890
  0
VERTEX
  8
央铋_1
 62
    39
  6
CONTINUOUS
 10
1.971886
 20
-0.610169
  0
VERTEX
  8
央铋_1
 62
    39
  6
CONTINUOUS
 10
1.952350
 20
-1.004571
  0
VERTEX
  8
央铋_1
 62
    39
  6
CONTINUOUS
 10
1.955862
 20
-1.009707
  0
VERTEX
  8
央铋_1
 62
    39
  6
CONTINUOUS
 10
1.965939
 20
-1.024479
  0
VERTEX
  8
央铋_1
 62
    39
  6
CONTINUOUS
 10
1.981899
 20
-1.047934
  0
VERTEX
  8
央铋_1
 62
    39
  6
CONTINUOUS
 10
2.003055
 20
-1.079118
  0
VERTEX
  8
央铋_1
 62
    39
  6
CONTINUOUS
 10
2.028724
 20
-1.117077
  0
VERTEX
  8
央铋_1
 62
    39
  6
CONTINUOUS
 10
2.058220
 20
-1.160858
  0
VERTEX
  8
央铋_1
 62
    39
  6
CONTINUOUS
 10
2.090860
 20
-1.209506
  0
VERTEX
  8
央铋_1
 62
    39
  6
CONTINUOUS
 10
2.125958
 20
-1.262069
  0
VERTEX
  8
央铋_1
 62
    39
  6
CONTINUOUS
 10
2.162829
 20
-1.317592
  0
VERTEX
  8
央铋_1
 62
    39
  6
CONTINUOUS
 10
2.200790
 20
-1.375122
  0
VERTEX
  8
央铋_1
 62
    39
  6
CONTINUOUS
 10
2.239155
 20
-1.433705
  0
VERTEX
  8
央铋_1
 62
    39
  6
CONTINUOUS
 10
2.277240
 20
-1.492388
  0
VERTEX
  8
央铋_1
 62
    39
  6
CONTINUOUS
 10
2.314361
 20
-1.550216
  0
VERTEX
  8
央铋_1
 62
    39
  6
CONTINUOUS
 10
2.349832
 20
-1.606236
  0
VERTEX
  8
央铋_1
 62
    39
  6
CONTINUOUS
 10
2.382968
 20
-1.659495
  0
VERTEX
  8
央铋_1
 62
    39
  6
CONTINUOUS
 10
2.413086
 20
-1.709039
  0
VERTEX
  8
央铋_1
 62
    39
  6
CONTINUOUS
 10
2.439501
 20
-1.753913
  0
VERTEX
  8
央铋_1
 62
    39
  6
CONTINUOUS
 10
2.461528
 20
-1.793165
  0
VERTEX
  8
央铋_1
 62
    39
  6
CONTINUOUS
 10
2.489277
 20
-1.843815
  0
VERTEX
  8
央铋_1
 62
    39
  6
CONTINUOUS
 10
2.517880
 20
-1.895441
  0
VERTEX
  8
央铋_1
 62
    39
  6
CONTINUOUS
 10
2.546800
 20
-1.947613
  0
VERTEX
  8
央铋_1
 62
    39
  6
CONTINUOUS
 10
2.575503
 20
-1.999897
  0
VERTEX
  8
央铋_1
 62
    39
  6
CONTINUOUS
 10
2.603455
 20
-2.051863
  0
VERTEX
  8
央铋_1
 62
    39
  6
CONTINUOUS
 10
2.630121
 20
-2.103079
  0
VERTEX
  8
央铋_1
 62
    39
  6
CONTINUOUS
 10
2.654966
 20
-2.153113
  0
VERTEX
  8
央铋_1
 62
    39
  6
CONTINUOUS
 10
2.677455
 20
-2.201532
  0
VERTEX
  8
央铋_1
 62
    39
  6
CONTINUOUS
 10
2.697054
 20
-2.247905
  0
VERTEX
  8
央铋_1
 62
    39
  6
CONTINUOUS
 10
2.713229
 20
-2.291801
  0
VERTEX
  8
央铋_1
 62
    39
  6
CONTINUOUS
 10
2.725444
 20
-2.332787
  0
VERTEX
  8
央铋_1
 62
    39
  6
CONTINUOUS
 10
2.733166
 20
-2.370432
  0
VERTEX
  8
央铋_1
 62
    39
  6
CONTINUOUS
 10
2.735858
 20
-2.404303
  0
VERTEX
  8
央铋_1
 62
    39
  6
CONTINUOUS
 10
2.740712
 20
-2.459766
  0
VERTEX
  8
央铋_1
 62
    39
  6
CONTINUOUS
 10
2.755502
 20
-2.507653
  0
VERTEX
  8
央铋_1
 62
    39
  6
CONTINUOUS
 10
2.780569
 20
-2.547616
  0
VERTEX
  8
央铋_1
 62
    39
  6
CONTINUOUS
 10
2.816256
 20
-2.579305
  0
VERTEX
  8
央铋_1
 62
    39
  6
CONTINUOUS
 10
2.862903
 20
-2.602372
  0
VERTEX
  8
央铋_1
 62
    39
  6
CONTINUOUS
 10
2.920854
 20
-2.616468
  0
VERTEX
  8
央铋_1
 62
    39
  6
CONTINUOUS
 10
2.990449
 20
-2.621244
  0
VERTEX
  8
央铋_1
 62
    39
  6
CONTINUOUS
 10
3.027866
 20
-2.619111
  0
VERTEX
  8
央铋_1
 62
    39
  6
CONTINUOUS
 10
3.064384
 20
-2.612624
  0
VERTEX
  8
央铋_1
 62
    39
  6
CONTINUOUS
 10
3.099705
 20
-2.601654
  0
VERTEX
  8
央铋_1
 62
    39
  6
CONTINUOUS
 10
3.133528
 20
-2.586073
  0
VERTEX
  8
央铋_1
 62
    39
  6
CONTINUOUS
 10
3.165553
 20
-2.565749
  0
VERTEX
  8
央铋_1
 62
    39
  6
CONTINUOUS
 10
3.195480
 20
-2.540554
  0
VERTEX
  8
央铋_1
 62
    39
  6
CONTINUOUS
 10
3.223009
 20
-2.510358
  0
VERTEX
  8
央铋_1
 62
    39
  6
CONTINUOUS
 10
3.247841
 20
-2.475032
  0
VERTEX
  8
央铋_1
 62
    39
  6
CONTINUOUS
 10
3.269676
 20
-2.434446
  0
VERTEX
  8
央铋_1
 62
    39
  6
CONTINUOUS
 10
3.288213
 20
-2.388471
  0
VERTEX
  8
央铋_1
 62
    39
  6
CONTINUOUS
 10
3.303153
 20
-2.336977
  0
VERTEX
  8
央铋_1
 62
    39
  6
CONTINUOUS
 10
3.314196
 20
-2.279835
  0
VERTEX
  8
央铋_1
 62
    39
  6
CONTINUOUS
 10
3.321041
 20
-2.216914
  0
VERTEX
  8
央铋_1
 62
    39
  6
CONTINUOUS
 10
3.323390
 20
-2.148087
  0
VERTEX
  8
央铋_1
 62
    39
  6
CONTINUOUS
 10
3.322146
 20
-2.071754
  0
VERTEX
  8
央铋_1
 62
    39
  6
CONTINUOUS
 10
3.318323
 20
-2.008979
  0
VERTEX
  8
央铋_1
 62
    39
  6
CONTINUOUS
 10
3.311783
 20
-1.957706
  0
VERTEX
  8
央铋_1
 62
    39
  6
CONTINUOUS
 10
3.302391
 20
-1.915882
  0
VERTEX
  8
央铋_1
 62
    39
  6
CONTINUOUS
 10
3.290008
 20
-1.881451
  0
VERTEX
  8
央铋_1
 62
    39
  6
CONTINUOUS
 10
3.274497
 20
-1.852361
  0
VERTEX
  8
央铋_1
 62
    39
  6
CONTINUOUS
 10
3.255722
 20
-1.826557
  0
VERTEX
  8
央铋_1
 62
    39
  6
CONTINUOUS
 10
3.233545
 20
-1.801985
  0
VERTEX
  8
央铋_1
 62
    39
  6
CONTINUOUS
 10
3.207829
 20
-1.776590
  0
VERTEX
  8
央铋_1
 62
    39
  6
CONTINUOUS
 10
3.178438
 20
-1.748318
  0
VERTEX
  8
央铋_1
 62
    39
  6
CONTINUOUS
 10
3.145233
 20
-1.715116
  0
VERTEX
  8
央铋_1
 62
    39
  6
CONTINUOUS
 10
3.108079
 20
-1.674929
  0
VERTEX
  8
央铋_1
 62
    39
  6
CONTINUOUS
 10
3.076315
 20
-1.638378
  0
VERTEX
  8
央铋_1
 62
    39
  6
CONTINUOUS
 10
3.040360
 20
-1.596022
  0
VERTEX
  8
央铋_1
 62
    39
  6
CONTINUOUS
 10
3.001077
 20
-1.548989
  0
VERTEX
  8
央铋_1
 62
    39
  6
CONTINUOUS
 10
2.959325
 20
-1.498404
  0
VERTEX
  8
央铋_1
 62
    39
  6
CONTINUOUS
 10
2.915966
 20
-1.445393
  0
VERTEX
  8
央铋_1
 62
    39
  6
CONTINUOUS
 10
2.871860
 20
-1.391084
  0
VERTEX
  8
央铋_1
 62
    39
  6
CONTINUOUS
 10
2.827869
 20
-1.336601
  0
VERTEX
  8
央铋_1
 62
    39
  6
CONTINUOUS
 10
2.784854
 20
-1.283072
  0
VERTEX
  8
央铋_1
 62
    39
  6
CONTINUOUS
 10
2.743675
 20
-1.231623
  0
VERTEX
  8
央铋_1
 62
    39
  6
CONTINUOUS
 10
2.705193
 20
-1.183379
  0
VERTEX
  8
央铋_1
 62
    39
  6
CONTINUOUS
 10
2.670269
 20
-1.139468
  0
VERTEX
  8
央铋_1
 62
    39
  6
CONTINUOUS
 10
2.639765
 20
-1.101015
  0
VERTEX
  8
央铋_1
 62
    39
  6
CONTINUOUS
 10
2.614541
 20
-1.069146
  0
VERTEX
  8
央铋_1
 62
    39
  6
CONTINUOUS
 10
2.595457
 20
-1.044989
  0
VERTEX
  8
央铋_1
 62
    39
  6
CONTINUOUS
 10
2.583376
 20
-1.029668
  0
VERTEX
  8
央铋_1
 62
    39
  6
CONTINUOUS
 10
2.579157
 20
-1.024311
  0
VERTEX
  8
央铋_1
 62
    39
  6
CONTINUOUS
 10
2.587617
 20
-1.022954
  0
VERTEX
  8
央铋_1
 62
    39
  6
CONTINUOUS
 10
2.610085
 20
-1.017191
  0
VERTEX
  8
央铋_1
 62
    39
  6
CONTINUOUS
 10
2.642197
 20
-1.004489
  0
VERTEX
  8
央铋_1
 62
    39
  6
CONTINUOUS
 10
2.679590
 20
-0.982311
  0
VERTEX
  8
央铋_1
 62
    39
  6
CONTINUOUS
 10
2.717898
 20
-0.948123
  0
VERTEX
  8
央铋_1
 62
    39
  6
CONTINUOUS
 10
2.752757
 20
-0.899390
  0
VERTEX
  8
央铋_1
 62
    39
  6
CONTINUOUS
 10
2.779804
 20
-0.833575
  0
VERTEX
  8
央铋_1
 62
    39
  6
CONTINUOUS
 10
2.794673
 20
-0.748146
  0
VERTEX
  8
央铋_1
 62
    39
  6
CONTINUOUS
 10
2.799603
 20
-0.670958
  0
VERTEX
  8
央铋_1
 62
    39
  6
CONTINUOUS
 10
2.800832
 20
-0.608042
  0
VERTEX
  8
央铋_1
 62
    39
  6
CONTINUOUS
 10
2.797552
 20
-0.556155
  0
VERTEX
  8
央铋_1
 62
    39
  6
CONTINUOUS
 10
2.788956
 20
-0.512051
  0
VERTEX
  8
央铋_1
 62
    39
  6
CONTINUOUS
 10
2.774236
 20
-0.472486
  0
VERTEX
  8
央铋_1
 62
    39
  6
CONTINUOUS
 10
2.752585
 20
-0.434215
  0
VERTEX
  8
央铋_1
 62
    39
  6
CONTINUOUS
 10
2.723195
 20
-0.393995
  0
VERTEX
  8
央铋_1
 62
    39
  6
CONTINUOUS
 10
2.685260
 20
-0.348581
  0
VERTEX
  8
央铋_1
 62
    39
  6
CONTINUOUS
 10
2.637972
 20
-0.294728
  0
VERTEX
  8
央铋_1
 62
    39
  6
CONTINUOUS
 10
2.553352
 20
-0.204043
  0
VERTEX
  8
央铋_1
 62
    39
  6
CONTINUOUS
 10
2.487537
 20
-0.141774
  0
VERTEX
  8
央铋_1
 62
    39
  6
CONTINUOUS
 10
2.440526
 20
-0.103175
  0
VERTEX
  8
央铋_1
 62
    39
  6
CONTINUOUS
 10
2.412319
 20
-0.083496
  0
VERTEX
  8
央铋_1
 62
    39
  6
CONTINUOUS
 10
2.402917
 20
-0.077992
  0
SEQEND
  8
0
  0
POLYLINE
  8
央铋_1
 62
    39
  6
CONTINUOUS
 66
     1
 40
0.003000
 41
0.003000
 70
     1
  0
VERTEX
  8
央铋_1
 62
    39
  6
CONTINUOUS
 10
-2.964228
 20
2.899142
  0
VERTEX
  8
央铋_1
 62
    39
  6
CONTINUOUS
 10
-2.958058
 20
2.952928
  0
VERTEX
  8
央铋_1
 62
    39
  6
CONTINUOUS
 10
-2.940624
 20
2.996769
  0
VERTEX
  8
央铋_1
 62
    39
  6
CONTINUOUS
 10
-2.913541
 20
3.031824
  0
VERTEX
  8
央铋_1
 62
    39
  6
CONTINUOUS
 10
-2.878423
 20
3.059252
  0
VERTEX
  8
央铋_1
 62
    39
  6
CONTINUOUS
 10
-2.836885
 20
3.080213
  0
VERTEX
  8
央铋_1
 62
    39
  6
CONTINUOUS
 10
-2.790542
 20
3.095864
  0
VERTEX
  8
央铋_1
 62
    39
  6
CONTINUOUS
 10
-2.741008
 20
3.107366
  0
VERTEX
  8
央铋_1
 62
    39
  6
CONTINUOUS
 10
-2.689898
 20
3.115878
  0
VERTEX
  8
央铋_1
 62
    39
  6
CONTINUOUS
 10
-2.678284
 20
3.116983
  0
VERTEX
  8
央铋_1
 62
    39
  6
CONTINUOUS
 10
-2.662250
 20
3.117620
  0
VERTEX
  8
央铋_1
 62
    39
  6
CONTINUOUS
 10
-2.641987
 20
3.117810
  0
VERTEX
  8
央铋_1
 62
    39
  6
CONTINUOUS
 10
-2.617690
 20
3.117573
  0
VERTEX
  8
央铋_1
 62
    39
  6
CONTINUOUS
 10
-2.589551
 20
3.116932
  0
VERTEX
  8
央铋_1
 62
    39
  6
CONTINUOUS
 10
-2.557764
 20
3.115905
  0
VERTEX
  8
央铋_1
 62
    39
  6
CONTINUOUS
 10
-2.522522
 20
3.114515
  0
VERTEX
  8
央铋_1
 62
    39
  6
CONTINUOUS
 10
-2.484017
 20
3.112781
  0
VERTEX
  8
央铋_1
 62
    39
  6
CONTINUOUS
 10
-2.442444
 20
3.110726
  0
VERTEX
  8
央铋_1
 62
    39
  6
CONTINUOUS
 10
-2.397995
 20
3.108369
  0
VERTEX
  8
央铋_1
 62
    39
  6
CONTINUOUS
 10
-2.350863
 20
3.105731
  0
VERTEX
  8
央铋_1
 62
    39
  6
CONTINUOUS
 10
-2.301242
 20
3.102834
  0
VERTEX
  8
央铋_1
 62
    39
  6
CONTINUOUS
 10
-2.249325
 20
3.099698
  0
VERTEX
  8
央铋_1
 62
    39
  6
CONTINUOUS
 10
-2.195304
 20
3.096344
  0
VERTEX
  8
央铋_1
 62
    39
  6
CONTINUOUS
 10
-2.139374
 20
3.092793
  0
VERTEX
  8
央铋_1
 62
    39
  6
CONTINUOUS
 10
-2.081727
 20
3.089066
  0
VERTEX
  8
央铋_1
 62
    39
  6
CONTINUOUS
 10
-2.022556
 20
3.085182
  0
VERTEX
  8
央铋_1
 62
    39
  6
CONTINUOUS
 10
-1.962055
 20
3.081165
  0
VERTEX
  8
央铋_1
 62
    39
  6
CONTINUOUS
 10
-1.900417
 20
3.077033
  0
VERTEX
  8
央铋_1
 62
    39
  6
CONTINUOUS
 10
-1.837835
 20
3.072808
  0
VERTEX
  8
央铋_1
 62
    39
  6
CONTINUOUS
 10
-1.774502
 20
3.068511
  0
VERTEX
  8
央铋_1
 62
    39
  6
CONTINUOUS
 10
-1.710611
 20
3.064162
  0
VERTEX
  8
央铋_1
 62
    39
  6
CONTINUOUS
 10
-1.646355
 20
3.059783
  0
VERTEX
  8
央铋_1
 62
    39
  6
CONTINUOUS
 10
-1.581929
 20
3.055394
  0
VERTEX
  8
央铋_1
 62
    39
  6
CONTINUOUS
 10
-1.517524
 20
3.051017
  0
VERTEX
  8
央铋_1
 62
    39
  6
CONTINUOUS
 10
-1.453333
 20
3.046671
  0
VERTEX
  8
央铋_1
 62
    39
  6
CONTINUOUS
 10
-1.389552
 20
3.042378
  0
VERTEX
  8
央铋_1
 62
    39
  6
CONTINUOUS
 10
-1.326371
 20
3.038158
  0
VERTEX
  8
央铋_1
 62
    39
  6
CONTINUOUS
 10
-1.263985
 20
3.034033
  0
VERTEX
  8
央铋_1
 62
    39
  6
CONTINUOUS
 10
-1.202586
 20
3.030023
  0
VERTEX
  8
央铋_1
 62
    39
  6
CONTINUOUS
 10
-1.142368
 20
3.026149
  0
VERTEX
  8
央铋_1
 62
    39
  6
CONTINUOUS
 10
-1.083525
 20
3.022432
  0
VERTEX
  8
央铋_1
 62
    39
  6
CONTINUOUS
 10
-1.026248
 20
3.018892
  0
VERTEX
  8
央铋_1
 62
    39
  6
CONTINUOUS
 10
-0.970732
 20
3.015551
  0
VERTEX
  8
央铋_1
 62
    39
  6
CONTINUOUS
 10
-0.917169
 20
3.012430
  0
VERTEX
  8
央铋_1
 62
    39
  6
CONTINUOUS
 10
-0.865753
 20
3.009548
  0
VERTEX
  8
央铋_1
 62
    39
  6
CONTINUOUS
 10
-0.816676
 20
3.006928
  0
VERTEX
  8
央铋_1
 62
    39
  6
CONTINUOUS
 10
-0.770133
 20
3.004589
  0
VERTEX
  8
央铋_1
 62
    39
  6
CONTINUOUS
 10
-0.726315
 20
3.002553
  0
VERTEX
  8
央铋_1
 62
    39
  6
CONTINUOUS
 10
-0.685417
 20
3.000840
  0
VERTEX
  8
央铋_1
 62
    39
  6
CONTINUOUS
 10
-0.647632
 20
2.999472
  0
VERTEX
  8
央铋_1
 62
    39
  6
CONTINUOUS
 10
-0.613152
 20
2.998469
  0
VERTEX
  8
央铋_1
 62
    39
  6
CONTINUOUS
 10
-0.582171
 20
2.997852
  0
VERTEX
  8
央铋_1
 62
    39
  6
CONTINUOUS
 10
-0.554882
 20
2.997642
  0
VERTEX
  8
央铋_1
 62
    39
  6
CONTINUOUS
 10
-0.554882
 20
2.997642
  0
VERTEX
  8
央铋_1
 62
    39
  6
CONTINUOUS
 10
-0.533719
 20
2.997516
  0
VERTEX
  8
央铋_1
 62
    39
  6
CONTINUOUS
 10
-0.509487
 20
2.997147
  0
VERTEX
  8
央铋_1
 62
    39
  6
CONTINUOUS
 10
-0.482299
 20
2.996545
  0
VERTEX
  8
央铋_1
 62
    39
  6
CONTINUOUS
 10
-0.452269
 20
2.995723
  0
VERTEX
  8
央铋_1
 62
    39
  6
CONTINUOUS
 10
-0.419511
 20
2.994692
  0
VERTEX
  8
央铋_1
 62
    39
  6
CONTINUOUS
 10
-0.384137
 20
2.993463
  0
VERTEX
  8
央铋_1
 62
    39
  6
CONTINUOUS
 10
-0.346263
 20
2.992048
  0
VERTEX
  8
央铋_1
 62
    39
  6
CONTINUOUS
 10
-0.306000
 20
2.990458
  0
VERTEX
  8
央铋_1
 62
    39
  6
CONTINUOUS
 10
-0.263463
 20
2.988705
  0
VERTEX
  8
央铋_1
 62
    39
  6
CONTINUOUS
 10
-0.218766
 20
2.986801
  0
VERTEX
  8
央铋_1
 62
    39
  6
CONTINUOUS
 10
-0.172022
 20
2.984757
  0
VERTEX
  8
央铋_1
 62
    39
  6
CONTINUOUS
 10
-0.123344
 20
2.982584
  0
VERTEX
  8
央铋_1
 62
    39
  6
CONTINUOUS
 10
-0.072847
 20
2.980294
  0
VERTEX
  8
央铋_1
 62
    39
  6
CONTINUOUS
 10
-0.020643
 20
2.977898
  0
VERTEX
  8
央铋_1
 62
    39
  6
CONTINUOUS
 10
0.033154
 20
2.975409
  0
VERTEX
  8
央铋_1
 62
    39
  6
CONTINUOUS
 10
0.088429
 20
2.972837
  0
VERTEX
  8
央铋_1
 62
    39
  6
CONTINUOUS
 10
0.145071
 20
2.970194
  0
VERTEX
  8
央铋_1
 62
    39
  6
CONTINUOUS
 10
0.202964
 20
2.967491
  0
VERTEX
  8
央铋_1
 62
    39
  6
CONTINUOUS
 10
0.261995
 20
2.964741
  0
VERTEX
  8
央铋_1
 62
    39
  6
CONTINUOUS
 10
0.322051
 20
2.961954
  0
VERTEX
  8
央铋_1
 62
    39
  6
CONTINUOUS
 10
0.383018
 20
2.959142
  0
VERTEX
  8
央铋_1
 62
    39
  6
CONTINUOUS
 10
0.444783
 20
2.956317
  0
VERTEX
  8
央铋_1
 62
    39
  6
CONTINUOUS
 10
0.507232
 20
2.953489
  0
VERTEX
  8
央铋_1
 62
    39
  6
CONTINUOUS
 10
0.570251
 20
2.950672
  0
VERTEX
  8
央铋_1
 62
    39
  6
CONTINUOUS
 10
0.633727
 20
2.947875
  0
VERTEX
  8
央铋_1
 62
    39
  6
CONTINUOUS
 10
0.697547
 20
2.945111
  0
VERTEX
  8
央铋_1
 62
    39
  6
CONTINUOUS
 10
0.761596
 20
2.942391
  0
VERTEX
  8
央铋_1
 62
    39
  6
CONTINUOUS
 10
0.825761
 20
2.939727
  0
VERTEX
  8
央铋_1
 62
    39
  6
CONTINUOUS
 10
0.889928
 20
2.937130
  0
VERTEX
  8
央铋_1
 62
    39
  6
CONTINUOUS
 10
0.953985
 20
2.934612
  0
VERTEX
  8
央铋_1
 62
    39
  6
CONTINUOUS
 10
1.017817
 20
2.932184
  0
VERTEX
  8
央铋_1
 62
    39
  6
CONTINUOUS
 10
1.081310
 20
2.929858
  0
VERTEX
  8
央铋_1
 62
    39
  6
CONTINUOUS
 10
1.144352
 20
2.927644
  0
VERTEX
  8
央铋_1
 62
    39
  6
CONTINUOUS
 10
1.206828
 20
2.925556
  0
VERTEX
  8
央铋_1
 62
    39
  6
CONTINUOUS
 10
1.268625
 20
2.923604
  0
VERTEX
  8
央铋_1
 62
    39
  6
CONTINUOUS
 10
1.329630
 20
2.921799
  0
VERTEX
  8
央铋_1
 62
    39
  6
CONTINUOUS
 10
1.389728
 20
2.920154
  0
VERTEX
  8
央铋_1
 62
    39
  6
CONTINUOUS
 10
1.448807
 20
2.918679
  0
VERTEX
  8
央铋_1
 62
    39
  6
CONTINUOUS
 10
1.506752
 20
2.917387
  0
VERTEX
  8
央铋_1
 62
    39
  6
CONTINUOUS
 10
1.563451
 20
2.916289
  0
VERTEX
  8
央铋_1
 62
    39
  6
CONTINUOUS
 10
1.618788
 20
2.915396
  0
VERTEX
  8
央铋_1
 62
    39
  6
CONTINUOUS
 10
1.672652
 20
2.914719
  0
VERTEX
  8
央铋_1
 62
    39
  6
CONTINUOUS
 10
1.724928
 20
2.914271
  0
VERTEX
  8
央铋_1
 62
    39
  6
CONTINUOUS
 10
1.775503
 20
2.914063
  0
VERTEX
  8
央铋_1
 62
    39
  6
CONTINUOUS
 10
1.824263
 20
2.914106
  0
VERTEX
  8
央铋_1
 62
    39
  6
CONTINUOUS
 10
1.871094
 20
2.914413
  0
VERTEX
  8
央铋_1
 62
    39
  6
CONTINUOUS
 10
1.915883
 20
2.914993
  0
VERTEX
  8
央铋_1
 62
    39
  6
CONTINUOUS
 10
1.958517
 20
2.915859
  0
VERTEX
  8
央铋_1
 62
    39
  6
CONTINUOUS
 10
1.998882
 20
2.917023
  0
VERTEX
  8
央铋_1
 62
    39
  6
CONTINUOUS
 10
2.036863
 20
2.918496
  0
VERTEX
  8
央铋_1
 62
    39
  6
CONTINUOUS
 10
2.072349
 20
2.920289
  0
VERTEX
  8
央铋_1
 62
    39
  6
CONTINUOUS
 10
2.105224
 20
2.922414
  0
VERTEX
  8
央铋_1
 62
    39
  6
CONTINUOUS
 10
2.135376
 20
2.924882
  0
VERTEX
  8
央铋_1
 62
    39
  6
CONTINUOUS
 10
2.162691
 20
2.927706
  0
VERTEX
  8
央铋_1
 62
    39
  6
CONTINUOUS
 10
2.187055
 20
2.930896
  0
VERTEX
  8
央铋_1
 62
    39
  6
CONTINUOUS
 10
2.208355
 20
2.934464
  0
VERTEX
  8
央铋_1
 62
    39
  6
CONTINUOUS
 10
2.226476
 20
2.938421
  0
VERTEX
  8
央铋_1
 62
    39
  6
CONTINUOUS
 10
2.226476
 20
2.938421
  0
VERTEX
  8
央铋_1
 62
    39
  6
CONTINUOUS
 10
2.309899
 20
2.961551
  0
VERTEX
  8
央铋_1
 62
    39
  6
CONTINUOUS
 10
2.374397
 20
2.983723
  0
VERTEX
  8
央铋_1
 62
    39
  6
CONTINUOUS
 10
2.423381
 20
3.005178
  0
VERTEX
  8
央铋_1
 62
    39
  6
CONTINUOUS
 10
2.460260
 20
3.026153
  0
VERTEX
  8
央铋_1
 62
    39
  6
CONTINUOUS
 10
2.488443
 20
3.046890
  0
VERTEX
  8
央铋_1
 62
    39
  6
CONTINUOUS
 10
2.511338
 20
3.067626
  0
VERTEX
  8
央铋_1
 62
    39
  6
CONTINUOUS
 10
2.532356
 20
3.088602
  0
VERTEX
  8
央铋_1
 62
    39
  6
CONTINUOUS
 10
2.554905
 20
3.110056
  0
VERTEX
  8
央铋_1
 62
    39
  6
CONTINUOUS
 10
2.582394
 20
3.132229
  0
VERTEX
  8
央铋_1
 62
    39
  6
CONTINUOUS
 10
2.618232
 20
3.155358
  0
VERTEX
  8
央铋_1
 62
    39
  6
CONTINUOUS
 10
2.653703
 20
3.174932
  0
VERTEX
  8
央铋_1
 62
    39
  6
CONTINUOUS
 10
2.691352
 20
3.193533
  0
VERTEX
  8
央铋_1
 62
    39
  6
CONTINUOUS
 10
2.730906
 20
3.210206
  0
VERTEX
  8
央铋_1
 62
    39
  6
CONTINUOUS
 10
2.772092
 20
3.223996
  0
VERTEX
  8
央铋_1
 62
    39
  6
CONTINUOUS
 10
2.814638
 20
3.233947
  0
VERTEX
  8
央铋_1
 62
    39
  6
CONTINUOUS
 10
2.858270
 20
3.239105
  0
VERTEX
  8
央铋_1
 62
    39
  6
CONTINUOUS
 10
2.902717
 20
3.238513
  0
VERTEX
  8
央铋_1
 62
    39
  6
CONTINUOUS
 10
2.947704
 20
3.231217
  0
VERTEX
  8
央铋_1
 62
    39
  6
CONTINUOUS
 10
2.992961
 20
3.216261
  0
VERTEX
  8
央铋_1
 62
    39
  6
CONTINUOUS
 10
3.038213
 20
3.192689
  0
VERTEX
  8
央铋_1
 62
    39
  6
CONTINUOUS
 10
3.083188
 20
3.159546
  0
VERTEX
  8
央铋_1
 62
    39
  6
CONTINUOUS
 10
3.127614
 20
3.115878
  0
VERTEX
  8
央铋_1
 62
    39
  6
CONTINUOUS
 10
3.163624
 20
3.076037
  0
VERTEX
  8
央铋_1
 62
    39
  6
CONTINUOUS
 10
3.191131
 20
3.046146
  0
VERTEX
  8
央铋_1
 62
    39
  6
CONTINUOUS
 10
3.211366
 20
3.024267
  0
VERTEX
  8
央铋_1
 62
    39
  6
CONTINUOUS
 10
3.225558
 20
3.008464
  0
VERTEX
  8
央铋_1
 62
    39
  6
CONTINUOUS
 10
3.234937
 20
2.996802
  0
VERTEX
  8
央铋_1
 62
    39
  6
CONTINUOUS
 10
3.240734
 20
2.987343
  0
VERTEX
  8
央铋_1
 62
    39
  6
CONTINUOUS
 10
3.244178
 20
2.978151
  0
VERTEX
  8
央铋_1
 62
    39
  6
CONTINUOUS
 10
3.246500
 20
2.967291
  0
VERTEX
  8
央铋_1
 62
    39
  6
CONTINUOUS
 10
3.248928
 20
2.952825
  0
VERTEX
  8
央铋_1
 62
    39
  6
CONTINUOUS
 10
3.252694
 20
2.932817
  0
VERTEX
  8
央铋_1
 62
    39
  6
CONTINUOUS
 10
3.259027
 20
2.905332
  0
VERTEX
  8
央铋_1
 62
    39
  6
CONTINUOUS
 10
3.269158
 20
2.868432
  0
VERTEX
  8
央铋_1
 62
    39
  6
CONTINUOUS
 10
3.284315
 20
2.820181
  0
VERTEX
  8
央铋_1
 62
    39
  6
CONTINUOUS
 10
3.305379
 20
2.751766
  0
VERTEX
  8
央铋_1
 62
    39
  6
CONTINUOUS
 10
3.316445
 20
2.702009
  0
VERTEX
  8
央铋_1
 62
    39
  6
CONTINUOUS
 10
3.317676
 20
2.667663
  0
VERTEX
  8
央铋_1
 62
    39
  6
CONTINUOUS
 10
3.309234
 20
2.645482
  0
VERTEX
  8
央铋_1
 62
    39
  6
CONTINUOUS
 10
3.291281
 20
2.632221
  0
VERTEX
  8
央铋_1
 62
    39
  6
CONTINUOUS
 10
3.263980
 20
2.624632
  0
VERTEX
  8
央铋_1
 62
    39
  6
CONTINUOUS
 10
3.227494
 20
2.619471
  0
VERTEX
  8
央铋_1
 62
    39
  6
CONTINUOUS
 10
3.181985
 20
2.613490
  0
VERTEX
  8
央铋_1
 62
    39
  6
CONTINUOUS
 10
3.127614
 20
2.603445
  0
VERTEX
  8
央铋_1
 62
    39
  6
CONTINUOUS
 10
3.116123
 20
2.601493
  0
VERTEX
  8
央铋_1
 62
    39
  6
CONTINUOUS
 10
3.100308
 20
2.599788
  0
VERTEX
  8
央铋_1
 62
    39
  6
CONTINUOUS
 10
3.080334
 20
2.598323
  0
VERTEX
  8
央铋_1
 62
    39
  6
CONTINUOUS
 10
3.056364
 20
2.597090
  0
VERTEX
  8
央铋_1
 62
    39
  6
CONTINUOUS
 10
3.028560
 20
2.596081
  0
VERTEX
  8
央铋_1
 62
    39
  6
CONTINUOUS
 10
2.997086
 20
2.595288
  0
VERTEX
  8
央铋_1
 62
    39
  6
CONTINUOUS
 10
2.962105
 20
2.594704
  0
VERTEX
  8
央铋_1
 62
    39
  6
CONTINUOUS
 10
2.923779
 20
2.594322
  0
VERTEX
  8
央铋_1
 62
    39
  6
CONTINUOUS
 10
2.882273
 20
2.594132
  0
VERTEX
  8
央铋_1
 62
    39
  6
CONTINUOUS
 10
2.837749
 20
2.594129
  0
VERTEX
  8
央铋_1
 62
    39
  6
CONTINUOUS
 10
2.790370
 20
2.594304
  0
VERTEX
  8
央铋_1
 62
    39
  6
CONTINUOUS
 10
2.740299
 20
2.594649
  0
VERTEX
  8
央铋_1
 62
    39
  6
CONTINUOUS
 10
2.687700
 20
2.595158
  0
VERTEX
  8
央铋_1
 62
    39
  6
CONTINUOUS
 10
2.632735
 20
2.595821
  0
VERTEX
  8
央铋_1
 62
    39
  6
CONTINUOUS
 10
2.575568
 20
2.596632
  0
VERTEX
  8
央铋_1
 62
    39
  6
CONTINUOUS
 10
2.516362
 20
2.597583
  0
VERTEX
  8
央铋_1
 62
    39
  6
CONTINUOUS
 10
2.455280
 20
2.598666
  0
VERTEX
  8
央铋_1
 62
    39
  6
CONTINUOUS
 10
2.392484
 20
2.599874
  0
VERTEX
  8
央铋_1
 62
    39
  6
CONTINUOUS
 10
2.328139
 20
2.601198
  0
VERTEX
  8
央铋_1
 62
    39
  6
CONTINUOUS
 10
2.262407
 20
2.602632
  0
VERTEX
  8
央铋_1
 62
    39
  6
CONTINUOUS
 10
2.195452
 20
2.604168
  0
VERTEX
  8
央铋_1
 62
    39
  6
CONTINUOUS
 10
2.127435
 20
2.605797
  0
VERTEX
  8
央铋_1
 62
    39
  6
CONTINUOUS
 10
2.058522
 20
2.607513
  0
VERTEX
  8
央铋_1
 62
    39
  6
CONTINUOUS
 10
1.988873
 20
2.609307
  0
VERTEX
  8
央铋_1
 62
    39
  6
CONTINUOUS
 10
1.918654
 20
2.611172
  0
VERTEX
  8
央铋_1
 62
    39
  6
CONTINUOUS
 10
1.848027
 20
2.613100
  0
VERTEX
  8
央铋_1
 62
    39
  6
CONTINUOUS
 10
1.777154
 20
2.615084
  0
VERTEX
  8
央铋_1
 62
    39
  6
CONTINUOUS
 10
1.706200
 20
2.617116
  0
VERTEX
  8
央铋_1
 62
    39
  6
CONTINUOUS
 10
1.635326
 20
2.619188
  0
VERTEX
  8
央铋_1
 62
    39
  6
CONTINUOUS
 10
1.564697
 20
2.621293
  0
VERTEX
  8
央铋_1
 62
    39
  6
CONTINUOUS
 10
1.494476
 20
2.623423
  0
VERTEX
  8
央铋_1
 62
    39
  6
CONTINUOUS
 10
1.424825
 20
2.625570
  0
VERTEX
  8
央铋_1
 62
    39
  6
CONTINUOUS
 10
1.355907
 20
2.627727
  0
VERTEX
  8
央铋_1
 62
    39
  6
CONTINUOUS
 10
1.287886
 20
2.629885
  0
VERTEX
  8
央铋_1
 62
    39
  6
CONTINUOUS
 10
1.220925
 20
2.632038
  0
VERTEX
  8
央铋_1
 62
    39
  6
CONTINUOUS
 10
1.155187
 20
2.634178
  0
VERTEX
  8
央铋_1
 62
    39
  6
CONTINUOUS
 10
1.090835
 20
2.636297
  0
VERTEX
  8
央铋_1
 62
    39
  6
CONTINUOUS
 10
1.028033
 20
2.638387
  0
VERTEX
  8
央铋_1
 62
    39
  6
CONTINUOUS
 10
0.966942
 20
2.640441
  0
VERTEX
  8
央铋_1
 62
    39
  6
CONTINUOUS
 10
0.907727
 20
2.642450
  0
VERTEX
  8
央铋_1
 62
    39
  6
CONTINUOUS
 10
0.850550
 20
2.644408
  0
VERTEX
  8
央铋_1
 62
    39
  6
CONTINUOUS
 10
0.795575
 20
2.646307
  0
VERTEX
  8
央铋_1
 62
    39
  6
CONTINUOUS
 10
0.742965
 20
2.648139
  0
VERTEX
  8
央铋_1
 62
    39
  6
CONTINUOUS
 10
0.692882
 20
2.649896
  0
VERTEX
  8
央铋_1
 62
    39
  6
CONTINUOUS
 10
0.645490
 20
2.651571
  0
VERTEX
  8
央铋_1
 62
    39
  6
CONTINUOUS
 10
0.600953
 20
2.653156
  0
VERTEX
  8
央铋_1
 62
    39
  6
CONTINUOUS
 10
0.559432
 20
2.654643
  0
VERTEX
  8
央铋_1
 62
    39
  6
CONTINUOUS
 10
0.521092
 20
2.656025
  0
VERTEX
  8
央铋_1
 62
    39
  6
CONTINUOUS
 10
0.486094
 20
2.657294
  0
VERTEX
  8
央铋_1
 62
    39
  6
CONTINUOUS
 10
0.454604
 20
2.658442
  0
VERTEX
  8
央铋_1
 62
    39
  6
CONTINUOUS
 10
0.426783
 20
2.659462
  0
VERTEX
  8
央铋_1
 62
    39
  6
CONTINUOUS
 10
0.402794
 20
2.660347
  0
VERTEX
  8
央铋_1
 62
    39
  6
CONTINUOUS
 10
0.382802
 20
2.661087
  0
VERTEX
  8
央铋_1
 62
    39
  6
CONTINUOUS
 10
0.366968
 20
2.661677
  0
VERTEX
  8
央铋_1
 62
    39
  6
CONTINUOUS
 10
0.355456
 20
2.662107
  0
VERTEX
  8
央铋_1
 62
    39
  6
CONTINUOUS
 10
0.348430
 20
2.662371
  0
VERTEX
  8
央铋_1
 62
    39
  6
CONTINUOUS
 10
0.346051
 20
2.662461
  0
VERTEX
  8
央铋_1
 62
    39
  6
CONTINUOUS
 10
0.343918
 20
2.662522
  0
VERTEX
  8
央铋_1
 62
    39
  6
CONTINUOUS
 10
0.337606
 20
2.662703
  0
VERTEX
  8
央铋_1
 62
    39
  6
CONTINUOUS
 10
0.327247
 20
2.663001
  0
VERTEX
  8
央铋_1
 62
    39
  6
CONTINUOUS
 10
0.312974
 20
2.663412
  0
VERTEX
  8
央铋_1
 62
    39
  6
CONTINUOUS
 10
0.294919
 20
2.663932
  0
VERTEX
  8
央铋_1
 62
    39
  6
CONTINUOUS
 10
0.273213
 20
2.664559
  0
VERTEX
  8
央铋_1
 62
    39
  6
CONTINUOUS
 10
0.247990
 20
2.665288
  0
VERTEX
  8
央铋_1
 62
    39
  6
CONTINUOUS
 10
0.219381
 20
2.666117
  0
VERTEX
  8
央铋_1
 62
    39
  6
CONTINUOUS
 10
0.187519
 20
2.667041
  0
VERTEX
  8
央铋_1
 62
    39
  6
CONTINUOUS
 10
0.152535
 20
2.668057
  0
VERTEX
  8
央铋_1
 62
    39
  6
CONTINUOUS
 10
0.114561
 20
2.669161
  0
VERTEX
  8
央铋_1
 62
    39
  6
CONTINUOUS
 10
0.073731
 20
2.670351
  0
VERTEX
  8
央铋_1
 62
    39
  6
CONTINUOUS
 10
0.030176
 20
2.671623
  0
VERTEX
  8
央铋_1
 62
    39
  6
CONTINUOUS
 10
-0.015972
 20
2.672972
  0
VERTEX
  8
央铋_1
 62
    39
  6
CONTINUOUS
 10
-0.064581
 20
2.674396
  0
VERTEX
  8
央铋_1
 62
    39
  6
CONTINUOUS
 10
-0.115518
 20
2.675892
  0
VERTEX
  8
央铋_1
 62
    39
  6
CONTINUOUS
 10
-0.168652
 20
2.677455
  0
VERTEX
  8
央铋_1
 62
    39
  6
CONTINUOUS
 10
-0.223850
 20
2.679082
  0
VERTEX
  8
央铋_1
 62
    39
  6
CONTINUOUS
 10
-0.280979
 20
2.680770
  0
VERTEX
  8
央铋_1
 62
    39
  6
CONTINUOUS
 10
-0.339909
 20
2.682515
  0
VERTEX
  8
央铋_1
 62
    39
  6
CONTINUOUS
 10
-0.400506
 20
2.684314
  0
VERTEX
  8
央铋_1
 62
    39
  6
CONTINUOUS
 10
-0.462639
 20
2.686163
  0
VERTEX
  8
央铋_1
 62
    39
  6
CONTINUOUS
 10
-0.526175
 20
2.688058
  0
VERTEX
  8
央铋_1
 62
    39
  6
CONTINUOUS
 10
-0.590982
 20
2.689997
  0
VERTEX
  8
央铋_1
 62
    39
  6
CONTINUOUS
 10
-0.656929
 20
2.691976
  0
VERTEX
  8
央铋_1
 62
    39
  6
CONTINUOUS
 10
-0.723882
 20
2.693991
  0
VERTEX
  8
央铋_1
 62
    39
  6
CONTINUOUS
 10
-0.791710
 20
2.696038
  0
VERTEX
  8
央铋_1
 62
    39
  6
CONTINUOUS
 10
-0.860280
 20
2.698115
  0
VERTEX
  8
央铋_1
 62
    39
  6
CONTINUOUS
 10
-0.929461
 20
2.700217
  0
VERTEX
  8
央铋_1
 62
    39
  6
CONTINUOUS
 10
-0.999121
 20
2.702342
  0
VERTEX
  8
央铋_1
 62
    39
  6
CONTINUOUS
 10
-1.069126
 20
2.704485
  0
VERTEX
  8
央铋_1
 62
    39
  6
CONTINUOUS
 10
-1.139345
 20
2.706644
  0
VERTEX
  8
央铋_1
 62
    39
  6
CONTINUOUS
 10
-1.209646
 20
2.708814
  0
VERTEX
  8
央铋_1
 62
    39
  6
CONTINUOUS
 10
-1.279897
 20
2.710993
  0
VERTEX
  8
央铋_1
 62
    39
  6
CONTINUOUS
 10
-1.349965
 20
2.713176
  0
VERTEX
  8
央铋_1
 62
    39
  6
CONTINUOUS
 10
-1.419719
 20
2.715361
  0
VERTEX
  8
央铋_1
 62
    39
  6
CONTINUOUS
 10
-1.489025
 20
2.717544
  0
VERTEX
  8
央铋_1
 62
    39
  6
CONTINUOUS
 10
-1.557753
 20
2.719720
  0
VERTEX
  8
央铋_1
 62
    39
  6
CONTINUOUS
 10
-1.625769
 20
2.721888
  0
VERTEX
  8
央铋_1
 62
    39
  6
CONTINUOUS
 10
-1.692942
 20
2.724043
  0
VERTEX
  8
央铋_1
 62
    39
  6
CONTINUOUS
 10
-1.759140
 20
2.726181
  0
VERTEX
  8
央铋_1
 62
    39
  6
CONTINUOUS
 10
-1.824230
 20
2.728300
  0
VERTEX
  8
央铋_1
 62
    39
  6
CONTINUOUS
 10
-1.888080
 20
2.730396
  0
VERTEX
  8
央铋_1
 62
    39
  6
CONTINUOUS
 10
-1.950558
 20
2.732465
  0
VERTEX
  8
央铋_1
 62
    39
  6
CONTINUOUS
 10
-2.011532
 20
2.734504
  0
VERTEX
  8
央铋_1
 62
    39
  6
CONTINUOUS
 10
-2.070870
 20
2.736509
  0
VERTEX
  8
央铋_1
 62
    39
  6
CONTINUOUS
 10
-2.128439
 20
2.738477
  0
VERTEX
  8
央铋_1
 62
    39
  6
CONTINUOUS
 10
-2.184108
 20
2.740404
  0
VERTEX
  8
央铋_1
 62
    39
  6
CONTINUOUS
 10
-2.237744
 20
2.742288
  0
VERTEX
  8
央铋_1
 62
    39
  6
CONTINUOUS
 10
-2.289215
 20
2.744123
  0
VERTEX
  8
央铋_1
 62
    39
  6
CONTINUOUS
 10
-2.338389
 20
2.745908
  0
VERTEX
  8
央铋_1
 62
    39
  6
CONTINUOUS
 10
-2.385133
 20
2.747637
  0
VERTEX
  8
央铋_1
 62
    39
  6
CONTINUOUS
 10
-2.429317
 20
2.749309
  0
VERTEX
  8
央铋_1
 62
    39
  6
CONTINUOUS
 10
-2.470806
 20
2.750919
  0
VERTEX
  8
央铋_1
 62
    39
  6
CONTINUOUS
 10
-2.509471
 20
2.752464
  0
VERTEX
  8
央铋_1
 62
    39
  6
CONTINUOUS
 10
-2.545177
 20
2.753940
  0
VERTEX
  8
央铋_1
 62
    39
  6
CONTINUOUS
 10
-2.577793
 20
2.755344
  0
VERTEX
  8
央铋_1
 62
    39
  6
CONTINUOUS
 10
-2.607187
 20
2.756673
  0
VERTEX
  8
央铋_1
 62
    39
  6
CONTINUOUS
 10
-2.633226
 20
2.757923
  0
VERTEX
  8
央铋_1
 62
    39
  6
CONTINUOUS
 10
-2.655780
 20
2.759089
  0
VERTEX
  8
央铋_1
 62
    39
  6
CONTINUOUS
 10
-2.674714
 20
2.760170
  0
VERTEX
  8
央铋_1
 62
    39
  6
CONTINUOUS
 10
-2.689898
 20
2.761161
  0
VERTEX
  8
央铋_1
 62
    39
  6
CONTINUOUS
 10
-2.689898
 20
2.761161
  0
VERTEX
  8
央铋_1
 62
    39
  6
CONTINUOUS
 10
-2.791833
 20
2.785021
  0
VERTEX
  8
央铋_1
 62
    39
  6
CONTINUOUS
 10
-2.865488
 20
2.814392
  0
VERTEX
  8
央铋_1
 62
    39
  6
CONTINUOUS
 10
-2.915207
 20
2.844881
  0
VERTEX
  8
央铋_1
 62
    39
  6
CONTINUOUS
 10
-2.945339
 20
2.872098
  0
VERTEX
  8
央铋_1
 62
    39
  6
CONTINUOUS
 10
-2.960231
 20
2.891649
  0
SEQEND
  8
0
  0
POLYLINE
  8
央铋_1
 62
    39
  6
CONTINUOUS
 66
     1
 40
0.003000
 41
0.003000
 70
     1
  0
VERTEX
  8
央铋_1
 62
    39
  6
CONTINUOUS
 10
-1.475559
 20
-0.551150
  0
VERTEX
  8
央铋_1
 62
    39
  6
CONTINUOUS
 10
-1.478489
 20
-0.554839
  0
VERTEX
  8
央铋_1
 62
    39
  6
CONTINUOUS
 10
-1.482689
 20
-0.565616
  0
VERTEX
  8
央铋_1
 62
    39
  6
CONTINUOUS
 10
-1.488039
 20
-0.583043
  0
VERTEX
  8
央铋_1
 62
    39
  6
CONTINUOUS
 10
-1.494419
 20
-0.606683
  0
VERTEX
  8
央铋_1
 62
    39
  6
CONTINUOUS
 10
-1.501709
 20
-0.636097
  0
VERTEX
  8
央铋_1
 62
    39
  6
CONTINUOUS
 10
-1.509787
 20
-0.670849
  0
VERTEX
  8
央铋_1
 62
    39
  6
CONTINUOUS
 10
-1.518535
 20
-0.710500
  0
VERTEX
  8
央铋_1
 62
    39
  6
CONTINUOUS
 10
-1.527832
 20
-0.754613
  0
VERTEX
  8
央铋_1
 62
    39
  6
CONTINUOUS
 10
-1.537556
 20
-0.802752
  0
VERTEX
  8
央铋_1
 62
    39
  6
CONTINUOUS
 10
-1.547589
 20
-0.854477
  0
VERTEX
  8
央铋_1
 62
    39
  6
CONTINUOUS
 10
-1.557809
 20
-0.909352
  0
VERTEX
  8
央铋_1
 62
    39
  6
CONTINUOUS
 10
-1.568096
 20
-0.966939
  0
VERTEX
  8
央铋_1
 62
    39
  6
CONTINUOUS
 10
-1.578330
 20
-1.026801
  0
VERTEX
  8
央铋_1
 62
    39
  6
CONTINUOUS
 10
-1.588391
 20
-1.088500
  0
VERTEX
  8
央铋_1
 62
    39
  6
CONTINUOUS
 10
-1.598158
 20
-1.151598
  0
VERTEX
  8
央铋_1
 62
    39
  6
CONTINUOUS
 10
-1.607511
 20
-1.215658
  0
VERTEX
  8
央铋_1
 62
    39
  6
CONTINUOUS
 10
-1.616330
 20
-1.280243
  0
VERTEX
  8
央铋_1
 62
    39
  6
CONTINUOUS
 10
-1.624494
 20
-1.344914
  0
VERTEX
  8
央铋_1
 62
    39
  6
CONTINUOUS
 10
-1.631883
 20
-1.409234
  0
VERTEX
  8
央铋_1
 62
    39
  6
CONTINUOUS
 10
-1.638376
 20
-1.472767
  0
VERTEX
  8
央铋_1
 62
    39
  6
CONTINUOUS
 10
-1.643854
 20
-1.535073
  0
VERTEX
  8
央铋_1
 62
    39
  6
CONTINUOUS
 10
-1.648195
 20
-1.595717
  0
VERTEX
  8
央铋_1
 62
    39
  6
CONTINUOUS
 10
-1.651281
 20
-1.654259
  0
VERTEX
  8
央铋_1
 62
    39
  6
CONTINUOUS
 10
-1.652989
 20
-1.710263
  0
VERTEX
  8
央铋_1
 62
    39
  6
CONTINUOUS
 10
-1.653201
 20
-1.763291
  0
VERTEX
  8
央铋_1
 62
    39
  6
CONTINUOUS
 10
-1.651795
 20
-1.812906
  0
VERTEX
  8
央铋_1
 62
    39
  6
CONTINUOUS
 10
-1.651795
 20
-1.812906
  0
VERTEX
  8
央铋_1
 62
    39
  6
CONTINUOUS
 10
-1.648668
 20
-1.859593
  0
VERTEX
  8
央铋_1
 62
    39
  6
CONTINUOUS
 10
-1.643669
 20
-1.907524
  0
VERTEX
  8
央铋_1
 62
    39
  6
CONTINUOUS
 10
-1.636866
 20
-1.956484
  0
VERTEX
  8
央铋_1
 62
    39
  6
CONTINUOUS
 10
-1.628325
 20
-2.006255
  0
VERTEX
  8
央铋_1
 62
    39
  6
CONTINUOUS
 10
-1.618110
 20
-2.056621
  0
VERTEX
  8
央铋_1
 62
    39
  6
CONTINUOUS
 10
-1.606288
 20
-2.107367
  0
VERTEX
  8
央铋_1
 62
    39
  6
CONTINUOUS
 10
-1.592925
 20
-2.158275
  0
VERTEX
  8
央铋_1
 62
    39
  6
CONTINUOUS
 10
-1.578087
 20
-2.209129
  0
VERTEX
  8
央铋_1
 62
    39
  6
CONTINUOUS
 10
-1.561838
 20
-2.259713
  0
VERTEX
  8
央铋_1
 62
    39
  6
CONTINUOUS
 10
-1.544246
 20
-2.309811
  0
VERTEX
  8
央铋_1
 62
    39
  6
CONTINUOUS
 10
-1.525375
 20
-2.359207
  0
VERTEX
  8
央铋_1
 62
    39
  6
CONTINUOUS
 10
-1.505293
 20
-2.407684
  0
VERTEX
  8
央铋_1
 62
    39
  6
CONTINUOUS
 10
-1.484064
 20
-2.455025
  0
VERTEX
  8
央铋_1
 62
    39
  6
CONTINUOUS
 10
-1.461754
 20
-2.501015
  0
VERTEX
  8
央铋_1
 62
    39
  6
CONTINUOUS
 10
-1.438430
 20
-2.545437
  0
VERTEX
  8
央铋_1
 62
    39
  6
CONTINUOUS
 10
-1.414156
 20
-2.588074
  0
VERTEX
  8
央铋_1
 62
    39
  6
CONTINUOUS
 10
-1.388999
 20
-2.628711
  0
VERTEX
  8
央铋_1
 62
    39
  6
CONTINUOUS
 10
-1.363025
 20
-2.667132
  0
VERTEX
  8
央铋_1
 62
    39
  6
CONTINUOUS
 10
-1.336300
 20
-2.703119
  0
VERTEX
  8
央铋_1
 62
    39
  6
CONTINUOUS
 10
-1.308889
 20
-2.736457
  0
VERTEX
  8
央铋_1
 62
    39
  6
CONTINUOUS
 10
-1.280857
 20
-2.766929
  0
VERTEX
  8
央铋_1
 62
    39
  6
CONTINUOUS
 10
-1.252272
 20
-2.794318
  0
VERTEX
  8
央铋_1
 62
    39
  6
CONTINUOUS
 10
-1.223199
 20
-2.818410
  0
VERTEX
  8
央铋_1
 62
    39
  6
CONTINUOUS
 10
-1.193703
 20
-2.838986
  0
VERTEX
  8
央铋_1
 62
    39
  6
CONTINUOUS
 10
-1.163850
 20
-2.855832
  0
VERTEX
  8
央铋_1
 62
    39
  6
CONTINUOUS
 10
-1.133707
 20
-2.868730
  0
VERTEX
  8
央铋_1
 62
    39
  6
CONTINUOUS
 10
-1.103339
 20
-2.877465
  0
VERTEX
  8
央铋_1
 62
    39
  6
CONTINUOUS
 10
-1.103339
 20
-2.877465
  0
VERTEX
  8
央铋_1
 62
    39
  6
CONTINUOUS
 10
-1.081790
 20
-2.881857
  0
VERTEX
  8
央铋_1
 62
    39
  6
CONTINUOUS
 10
-1.056429
 20
-2.886555
  0
VERTEX
  8
央铋_1
 62
    39
  6
CONTINUOUS
 10
-1.027441
 20
-2.891530
  0
VERTEX
  8
央铋_1
 62
    39
  6
CONTINUOUS
 10
-0.995011
 20
-2.896753
  0
VERTEX
  8
央铋_1
 62
    39
  6
CONTINUOUS
 10
-0.959326
 20
-2.902196
  0
VERTEX
  8
央铋_1
 62
    39
  6
CONTINUOUS
 10
-0.920571
 20
-2.907830
  0
VERTEX
  8
央铋_1
 62
    39
  6
CONTINUOUS
 10
-0.878932
 20
-2.913626
  0
VERTEX
  8
央铋_1
 62
    39
  6
CONTINUOUS
 10
-0.834593
 20
-2.919555
  0
VERTEX
  8
央铋_1
 62
    39
  6
CONTINUOUS
 10
-0.787742
 20
-2.925589
  0
VERTEX
  8
央铋_1
 62
    39
  6
CONTINUOUS
 10
-0.738563
 20
-2.931699
  0
VERTEX
  8
央铋_1
 62
    39
  6
CONTINUOUS
 10
-0.687242
 20
-2.937857
  0
VERTEX
  8
央铋_1
 62
    39
  6
CONTINUOUS
 10
-0.633964
 20
-2.944033
  0
VERTEX
  8
央铋_1
 62
    39
  6
CONTINUOUS
 10
-0.578916
 20
-2.950200
  0
VERTEX
  8
央铋_1
 62
    39
  6
CONTINUOUS
 10
-0.522283
 20
-2.956328
  0
VERTEX
  8
央铋_1
 62
    39
  6
CONTINUOUS
 10
-0.464251
 20
-2.962388
  0
VERTEX
  8
央铋_1
 62
    39
  6
CONTINUOUS
 10
-0.405005
 20
-2.968352
  0
VERTEX
  8
央铋_1
 62
    39
  6
CONTINUOUS
 10
-0.344730
 20
-2.974191
  0
VERTEX
  8
央铋_1
 62
    39
  6
CONTINUOUS
 10
-0.283613
 20
-2.979878
  0
VERTEX
  8
央铋_1
 62
    39
  6
CONTINUOUS
 10
-0.221839
 20
-2.985381
  0
VERTEX
  8
央铋_1
 62
    39
  6
CONTINUOUS
 10
-0.159594
 20
-2.990674
  0
VERTEX
  8
央铋_1
 62
    39
  6
CONTINUOUS
 10
-0.097063
 20
-2.995728
  0
VERTEX
  8
央铋_1
 62
    39
  6
CONTINUOUS
 10
-0.034433
 20
-3.000513
  0
VERTEX
  8
央铋_1
 62
    39
  6
CONTINUOUS
 10
0.028112
 20
-3.005001
  0
VERTEX
  8
央铋_1
 62
    39
  6
CONTINUOUS
 10
0.090386
 20
-3.009164
  0
VERTEX
  8
央铋_1
 62
    39
  6
CONTINUOUS
 10
0.152204
 20
-3.012972
  0
VERTEX
  8
央铋_1
 62
    39
  6
CONTINUOUS
 10
0.213378
 20
-3.016398
  0
VERTEX
  8
央铋_1
 62
    39
  6
CONTINUOUS
 10
0.273725
 20
-3.019412
  0
VERTEX
  8
央铋_1
 62
    39
  6
CONTINUOUS
 10
0.333057
 20
-3.021985
  0
VERTEX
  8
央铋_1
 62
    39
  6
CONTINUOUS
 10
0.391191
 20
-3.024089
  0
VERTEX
  8
央铋_1
 62
    39
  6
CONTINUOUS
 10
0.447939
 20
-3.025695
  0
VERTEX
  8
央铋_1
 62
    39
  6
CONTINUOUS
 10
0.503117
 20
-3.026775
  0
VERTEX
  8
央铋_1
 62
    39
  6
CONTINUOUS
 10
0.556539
 20
-3.027300
  0
VERTEX
  8
央铋_1
 62
    39
  6
CONTINUOUS
 10
0.608018
 20
-3.027241
  0
VERTEX
  8
央铋_1
 62
    39
  6
CONTINUOUS
 10
0.657371
 20
-3.026569
  0
VERTEX
  8
央铋_1
 62
    39
  6
CONTINUOUS
 10
0.704410
 20
-3.025256
  0
VERTEX
  8
央铋_1
 62
    39
  6
CONTINUOUS
 10
0.748950
 20
-3.023274
  0
VERTEX
  8
央铋_1
 62
    39
  6
CONTINUOUS
 10
0.790806
 20
-3.020592
  0
VERTEX
  8
央铋_1
 62
    39
  6
CONTINUOUS
 10
0.829792
 20
-3.017183
  0
VERTEX
  8
央铋_1
 62
    39
  6
CONTINUOUS
 10
0.865722
 20
-3.013018
  0
VERTEX
  8
央铋_1
 62
    39
  6
CONTINUOUS
 10
0.898411
 20
-3.008069
  0
VERTEX
  8
央铋_1
 62
    39
  6
CONTINUOUS
 10
0.927673
 20
-3.002306
  0
VERTEX
  8
央铋_1
 62
    39
  6
CONTINUOUS
 10
0.953323
 20
-2.995701
  0
VERTEX
  8
央铋_1
 62
    39
  6
CONTINUOUS
 10
0.953323
 20
-2.995701
  0
VERTEX
  8
央铋_1
 62
    39
  6
CONTINUOUS
 10
0.997482
 20
-2.981326
  0
VERTEX
  8
央铋_1
 62
    39
  6
CONTINUOUS
 10
1.042911
 20
-2.964044
  0
VERTEX
  8
央铋_1
 62
    39
  6
CONTINUOUS
 10
1.089319
 20
-2.944080
  0
VERTEX
  8
央铋_1
 62
    39
  6
CONTINUOUS
 10
1.136417
 20
-2.921656
  0
VERTEX
  8
央铋_1
 62
    39
  6
CONTINUOUS
 10
1.183914
 20
-2.896996
  0
VERTEX
  8
央铋_1
 62
    39
  6
CONTINUOUS
 10
1.231520
 20
-2.870323
  0
VERTEX
  8
央铋_1
 62
    39
  6
CONTINUOUS
 10
1.278944
 20
-2.841862
  0
VERTEX
  8
央铋_1
 62
    39
  6
CONTINUOUS
 10
1.325896
 20
-2.811834
  0
VERTEX
  8
央铋_1
 62
    39
  6
CONTINUOUS
 10
1.372085
 20
-2.780465
  0
VERTEX
  8
央铋_1
 62
    39
  6
CONTINUOUS
 10
1.417222
 20
-2.747978
  0
VERTEX
  8
央铋_1
 62
    39
  6
CONTINUOUS
 10
1.461016
 20
-2.714595
  0
VERTEX
  8
央铋_1
 62
    39
  6
CONTINUOUS
 10
1.503177
 20
-2.680541
  0
VERTEX
  8
央铋_1
 62
    39
  6
CONTINUOUS
 10
1.543414
 20
-2.646039
  0
VERTEX
  8
央铋_1
 62
    39
  6
CONTINUOUS
 10
1.581437
 20
-2.611313
  0
VERTEX
  8
央铋_1
 62
    39
  6
CONTINUOUS
 10
1.616956
 20
-2.576585
  0
VERTEX
  8
央铋_1
 62
    39
  6
CONTINUOUS
 10
1.649680
 20
-2.542080
  0
VERTEX
  8
央铋_1
 62
    39
  6
CONTINUOUS
 10
1.679319
 20
-2.508021
  0
VERTEX
  8
央铋_1
 62
    39
  6
CONTINUOUS
 10
1.705583
 20
-2.474631
  0
VERTEX
  8
央铋_1
 62
    39
  6
CONTINUOUS
 10
1.728181
 20
-2.442134
  0
VERTEX
  8
央铋_1
 62
    39
  6
CONTINUOUS
 10
1.746823
 20
-2.410754
  0
VERTEX
  8
央铋_1
 62
    39
  6
CONTINUOUS
 10
1.761219
 20
-2.380714
  0
VERTEX
  8
央铋_1
 62
    39
  6
CONTINUOUS
 10
1.771078
 20
-2.352237
  0
VERTEX
  8
央铋_1
 62
    39
  6
CONTINUOUS
 10
1.776110
 20
-2.325547
  0
VERTEX
  8
央铋_1
 62
    39
  6
CONTINUOUS
 10
1.785225
 20
-2.242202
  0
VERTEX
  8
央铋_1
 62
    39
  6
CONTINUOUS
 10
1.792384
 20
-2.183294
  0
VERTEX
  8
央铋_1
 62
    39
  6
CONTINUOUS
 10
1.796310
 20
-2.139718
  0
VERTEX
  8
央铋_1
 62
    39
  6
CONTINUOUS
 10
1.795723
 20
-2.102366
  0
VERTEX
  8
央铋_1
 62
    39
  6
CONTINUOUS
 10
1.789348
 20
-2.062131
  0
VERTEX
  8
央铋_1
 62
    39
  6
CONTINUOUS
 10
1.775906
 20
-2.009906
  0
VERTEX
  8
央铋_1
 62
    39
  6
CONTINUOUS
 10
1.765243
 20
-1.973466
  0
VERTEX
  8
央铋_1
 62
    39
  6
CONTINUOUS
 10
1.752276
 20
-1.931706
  0
VERTEX
  8
央铋_1
 62
    39
  6
CONTINUOUS
 10
1.737059
 20
-1.885723
  0
VERTEX
  8
央铋_1
 62
    39
  6
CONTINUOUS
 10
1.719648
 20
-1.836613
  0
VERTEX
  8
央铋_1
 62
    39
  6
CONTINUOUS
 10
1.700100
 20
-1.785474
  0
VERTEX
  8
央铋_1
 62
    39
  6
CONTINUOUS
 10
1.678471
 20
-1.733403
  0
VERTEX
  8
央铋_1
 62
    39
  6
CONTINUOUS
 10
1.654816
 20
-1.681497
  0
VERTEX
  8
央铋_1
 62
    39
  6
CONTINUOUS
 10
1.629191
 20
-1.630854
  0
VERTEX
  8
央铋_1
 62
    39
  6
CONTINUOUS
 10
1.601653
 20
-1.582569
  0
VERTEX
  8
央铋_1
 62
    39
  6
CONTINUOUS
 10
1.572257
 20
-1.537742
  0
VERTEX
  8
央铋_1
 62
    39
  6
CONTINUOUS
 10
1.541059
 20
-1.497469
  0
VERTEX
  8
央铋_1
 62
    39
  6
CONTINUOUS
 10
1.541059
 20
-1.497469
  0
VERTEX
  8
央铋_1
 62
    39
  6
CONTINUOUS
 10
1.493915
 20
-1.443850
  0
VERTEX
  8
央铋_1
 62
    39
  6
CONTINUOUS
 10
1.464696
 20
-1.416999
  0
VERTEX
  8
央铋_1
 62
    39
  6
CONTINUOUS
 10
1.445281
 20
-1.410952
  0
VERTEX
  8
央铋_1
 62
    39
  6
CONTINUOUS
 10
1.427544
 20
-1.419744
  0
VERTEX
  8
央铋_1
 62
    39
  6
CONTINUOUS
 10
1.403363
 20
-1.437410
  0
VERTEX
  8
央铋_1
 62
    39
  6
CONTINUOUS
 10
1.364614
 20
-1.457988
  0
VERTEX
  8
央铋_1
 62
    39
  6
CONTINUOUS
 10
1.338464
 20
-1.474060
  0
VERTEX
  8
央铋_1
 62
    39
  6
CONTINUOUS
 10
1.313072
 20
-1.499583
  0
VERTEX
  8
央铋_1
 62
    39
  6
CONTINUOUS
 10
1.288267
 20
-1.533323
  0
VERTEX
  8
央铋_1
 62
    39
  6
CONTINUOUS
 10
1.263878
 20
-1.574046
  0
VERTEX
  8
央铋_1
 62
    39
  6
CONTINUOUS
 10
1.239736
 20
-1.620516
  0
VERTEX
  8
央铋_1
 62
    39
  6
CONTINUOUS
 10
1.215668
 20
-1.671499
  0
VERTEX
  8
央铋_1
 62
    39
  6
CONTINUOUS
 10
1.191505
 20
-1.725760
  0
VERTEX
  8
央铋_1
 62
    39
  6
CONTINUOUS
 10
1.167077
 20
-1.782064
  0
VERTEX
  8
央铋_1
 62
    39
  6
CONTINUOUS
 10
1.142211
 20
-1.839176
  0
VERTEX
  8
央铋_1
 62
    39
  6
CONTINUOUS
 10
1.116739
 20
-1.895862
  0
VERTEX
  8
央铋_1
 62
    39
  6
CONTINUOUS
 10
1.090488
 20
-1.950886
  0
VERTEX
  8
央铋_1
 62
    39
  6
CONTINUOUS
 10
1.090488
 20
-1.950886
  0
VERTEX
  8
央铋_1
 62
    39
  6
CONTINUOUS
 10
1.062190
 20
-2.010396
  0
VERTEX
  8
央铋_1
 62
    39
  6
CONTINUOUS
 10
1.035641
 20
-2.069660
  0
VERTEX
  8
央铋_1
 62
    39
  6
CONTINUOUS
 10
1.010257
 20
-2.127262
  0
VERTEX
  8
央铋_1
 62
    39
  6
CONTINUOUS
 10
0.985454
 20
-2.181782
  0
VERTEX
  8
央铋_1
 62
    39
  6
CONTINUOUS
 10
0.960649
 20
-2.231805
  0
VERTEX
  8
央铋_1
 62
    39
  6
CONTINUOUS
 10
0.935257
 20
-2.275911
  0
VERTEX
  8
央铋_1
 62
    39
  6
CONTINUOUS
 10
0.908696
 20
-2.312683
  0
VERTEX
  8
央铋_1
 62
    39
  6
CONTINUOUS
 10
0.880382
 20
-2.340705
  0
VERTEX
  8
央铋_1
 62
    39
  6
CONTINUOUS
 10
0.849730
 20
-2.358557
  0
VERTEX
  8
央铋_1
 62
    39
  6
CONTINUOUS
 10
0.816157
 20
-2.364823
  0
VERTEX
  8
央铋_1
 62
    39
  6
CONTINUOUS
 10
0.802506
 20
-2.364972
  0
VERTEX
  8
央铋_1
 62
    39
  6
CONTINUOUS
 10
0.782537
 20
-2.365395
  0
VERTEX
  8
央铋_1
 62
    39
  6
CONTINUOUS
 10
0.756640
 20
-2.366061
  0
VERTEX
  8
央铋_1
 62
    39
  6
CONTINUOUS
 10
0.725208
 20
-2.366936
  0
VERTEX
  8
央铋_1
 62
    39
  6
CONTINUOUS
 10
0.688632
 20
-2.367986
  0
VERTEX
  8
央铋_1
 62
    39
  6
CONTINUOUS
 10
0.647304
 20
-2.369179
  0
VERTEX
  8
央铋_1
 62
    39
  6
CONTINUOUS
 10
0.601616
 20
-2.370481
  0
VERTEX
  8
央铋_1
 62
    39
  6
CONTINUOUS
 10
0.551960
 20
-2.371859
  0
VERTEX
  8
央铋_1
 62
    39
  6
CONTINUOUS
 10
0.498726
 20
-2.373279
  0
VERTEX
  8
央铋_1
 62
    39
  6
CONTINUOUS
 10
0.442308
 20
-2.374710
  0
VERTEX
  8
央铋_1
 62
    39
  6
CONTINUOUS
 10
0.383097
 20
-2.376116
  0
VERTEX
  8
央铋_1
 62
    39
  6
CONTINUOUS
 10
0.321484
 20
-2.377466
  0
VERTEX
  8
央铋_1
 62
    39
  6
CONTINUOUS
 10
0.257861
 20
-2.378725
  0
VERTEX
  8
央铋_1
 62
    39
  6
CONTINUOUS
 10
0.192620
 20
-2.379861
  0
VERTEX
  8
央铋_1
 62
    39
  6
CONTINUOUS
 10
0.126153
 20
-2.380841
  0
VERTEX
  8
央铋_1
 62
    39
  6
CONTINUOUS
 10
0.058851
 20
-2.381631
  0
VERTEX
  8
央铋_1
 62
    39
  6
CONTINUOUS
 10
-0.008894
 20
-2.382198
  0
VERTEX
  8
央铋_1
 62
    39
  6
CONTINUOUS
 10
-0.076690
 20
-2.382509
  0
VERTEX
  8
央铋_1
 62
    39
  6
CONTINUOUS
 10
-0.144146
 20
-2.382530
  0
VERTEX
  8
央铋_1
 62
    39
  6
CONTINUOUS
 10
-0.210869
 20
-2.382229
  0
VERTEX
  8
央铋_1
 62
    39
  6
CONTINUOUS
 10
-0.276469
 20
-2.381572
  0
VERTEX
  8
央铋_1
 62
    39
  6
CONTINUOUS
 10
-0.340553
 20
-2.380527
  0
VERTEX
  8
央铋_1
 62
    39
  6
CONTINUOUS
 10
-0.402729
 20
-2.379059
  0
VERTEX
  8
央铋_1
 62
    39
  6
CONTINUOUS
 10
-0.462606
 20
-2.377135
  0
VERTEX
  8
央铋_1
 62
    39
  6
CONTINUOUS
 10
-0.519793
 20
-2.374723
  0
VERTEX
  8
央铋_1
 62
    39
  6
CONTINUOUS
 10
-0.573897
 20
-2.371789
  0
VERTEX
  8
央铋_1
 62
    39
  6
CONTINUOUS
 10
-0.624526
 20
-2.368300
  0
VERTEX
  8
央铋_1
 62
    39
  6
CONTINUOUS
 10
-0.671290
 20
-2.364223
  0
VERTEX
  8
央铋_1
 62
    39
  6
CONTINUOUS
 10
-0.713796
 20
-2.359525
  0
VERTEX
  8
央铋_1
 62
    39
  6
CONTINUOUS
 10
-0.751652
 20
-2.354171
  0
VERTEX
  8
央铋_1
 62
    39
  6
CONTINUOUS
 10
-0.784467
 20
-2.348130
  0
VERTEX
  8
央铋_1
 62
    39
  6
CONTINUOUS
 10
-0.811849
 20
-2.341368
  0
VERTEX
  8
央铋_1
 62
    39
  6
CONTINUOUS
 10
-0.833407
 20
-2.333851
  0
VERTEX
  8
央铋_1
 62
    39
  6
CONTINUOUS
 10
-0.848748
 20
-2.325547
  0
VERTEX
  8
央铋_1
 62
    39
  6
CONTINUOUS
 10
-0.888661
 20
-2.296311
  0
VERTEX
  8
央铋_1
 62
    39
  6
CONTINUOUS
 10
-0.925865
 20
-2.266960
  0
VERTEX
  8
央铋_1
 62
    39
  6
CONTINUOUS
 10
-0.960010
 20
-2.236192
  0
VERTEX
  8
央铋_1
 62
    39
  6
CONTINUOUS
 10
-0.990743
 20
-2.202707
  0
VERTEX
  8
央铋_1
 62
    39
  6
CONTINUOUS
 10
-1.017713
 20
-2.165206
  0
VERTEX
  8
央铋_1
 62
    39
  6
CONTINUOUS
 10
-1.040567
 20
-2.122386
  0
VERTEX
  8
央铋_1
 62
    39
  6
CONTINUOUS
 10
-1.058955
 20
-2.072949
  0
VERTEX
  8
央铋_1
 62
    39
  6
CONTINUOUS
 10
-1.072525
 20
-2.015594
  0
VERTEX
  8
央铋_1
 62
    39
  6
CONTINUOUS
 10
-1.080925
 20
-1.949019
  0
VERTEX
  8
央铋_1
 62
    39
  6
CONTINUOUS
 10
-1.083803
 20
-1.871925
  0
VERTEX
  8
央铋_1
 62
    39
  6
CONTINUOUS
 10
-1.083358
 20
-1.804930
  0
VERTEX
  8
央铋_1
 62
    39
  6
CONTINUOUS
 10
-1.081888
 20
-1.741697
  0
VERTEX
  8
央铋_1
 62
    39
  6
CONTINUOUS
 10
-1.079189
 20
-1.681885
  0
VERTEX
  8
央铋_1
 62
    39
  6
CONTINUOUS
 10
-1.075060
 20
-1.625151
  0
VERTEX
  8
央铋_1
 62
    39
  6
CONTINUOUS
 10
-1.069297
 20
-1.571153
  0
VERTEX
  8
央铋_1
 62
    39
  6
CONTINUOUS
 10
-1.061697
 20
-1.519549
  0
VERTEX
  8
央铋_1
 62
    39
  6
CONTINUOUS
 10
-1.052058
 20
-1.469997
  0
VERTEX
  8
央铋_1
 62
    39
  6
CONTINUOUS
 10
-1.040176
 20
-1.422155
  0
VERTEX
  8
央铋_1
 62
    39
  6
CONTINUOUS
 10
-1.025850
 20
-1.375681
  0
VERTEX
  8
央铋_1
 62
    39
  6
CONTINUOUS
 10
-1.008876
 20
-1.330233
  0
VERTEX
  8
央铋_1
 62
    39
  6
CONTINUOUS
 10
-0.989051
 20
-1.285469
  0
VERTEX
  8
央铋_1
 62
    39
  6
CONTINUOUS
 10
-0.966173
 20
-1.241047
  0
VERTEX
  8
央铋_1
 62
    39
  6
CONTINUOUS
 10
-0.941293
 20
-1.187849
  0
VERTEX
  8
央铋_1
 62
    39
  6
CONTINUOUS
 10
-0.924522
 20
-1.134887
  0
VERTEX
  8
央铋_1
 62
    39
  6
CONTINUOUS
 10
-0.914566
 20
-1.082399
  0
VERTEX
  8
央铋_1
 62
    39
  6
CONTINUOUS
 10
-0.910134
 20
-1.030621
  0
VERTEX
  8
央铋_1
 62
    39
  6
CONTINUOUS
 10
-0.909931
 20
-0.979791
  0
VERTEX
  8
央铋_1
 62
    39
  6
CONTINUOUS
 10
-0.912664
 20
-0.930146
  0
VERTEX
  8
央铋_1
 62
    39
  6
CONTINUOUS
 10
-0.917041
 20
-0.881922
  0
VERTEX
  8
央铋_1
 62
    39
  6
CONTINUOUS
 10
-0.921769
 20
-0.835356
  0
VERTEX
  8
央铋_1
 62
    39
  6
CONTINUOUS
 10
-0.925553
 20
-0.790685
  0
VERTEX
  8
央铋_1
 62
    39
  6
CONTINUOUS
 10
-0.927102
 20
-0.748146
  0
VERTEX
  8
央铋_1
 62
    39
  6
CONTINUOUS
 10
-0.927102
 20
-0.662357
  0
VERTEX
  8
央铋_1
 62
    39
  6
CONTINUOUS
 10
-0.927102
 20
-0.577506
  0
VERTEX
  8
央铋_1
 62
    39
  6
CONTINUOUS
 10
-0.927102
 20
-0.504005
  0
VERTEX
  8
央铋_1
 62
    39
  6
CONTINUOUS
 10
-0.927102
 20
-0.452268
  0
VERTEX
  8
央铋_1
 62
    39
  6
CONTINUOUS
 10
-0.927102
 20
-0.432709
  0
VERTEX
  8
央铋_1
 62
    39
  6
CONTINUOUS
 10
-0.941932
 20
-0.436025
  0
VERTEX
  8
央铋_1
 62
    39
  6
CONTINUOUS
 10
-0.982266
 20
-0.445027
  0
VERTEX
  8
央铋_1
 62
    39
  6
CONTINUOUS
 10
-1.041876
 20
-0.458292
  0
VERTEX
  8
央铋_1
 62
    39
  6
CONTINUOUS
 10
-1.114532
 20
-0.474400
  0
VERTEX
  8
央铋_1
 62
    39
  6
CONTINUOUS
 10
-1.194003
 20
-0.491929
  0
VERTEX
  8
央铋_1
 62
    39
  6
CONTINUOUS
 10
-1.274061
 20
-0.509458
  0
VERTEX
  8
央铋_1
 62
    39
  6
CONTINUOUS
 10
-1.348476
 20
-0.525566
  0
VERTEX
  8
央铋_1
 62
    39
  6
CONTINUOUS
 10
-1.411016
 20
-0.538832
  0
VERTEX
  8
央铋_1
 62
    39
  6
CONTINUOUS
 10
-1.455454
 20
-0.547833
  0
SEQEND
  8
0
  0
POLYLINE
  8
央铋_1
 62
    39
  6
CONTINUOUS
 66
     1
 40
0.003000
 41
0.003000
 70
     1
  0
VERTEX
  8
央铋_1
 62
    39
  6
CONTINUOUS
 10
0.013110
 20
3.707480
  0
VERTEX
  8
央铋_1
 62
    39
  6
CONTINUOUS
 10
0.061503
 20
3.702769
  0
VERTEX
  8
央铋_1
 62
    39
  6
CONTINUOUS
 10
0.109902
 20
3.689346
  0
VERTEX
  8
央铋_1
 62
    39
  6
CONTINUOUS
 10
0.157336
 20
3.668278
  0
VERTEX
  8
央铋_1
 62
    39
  6
CONTINUOUS
 10
0.202830
 20
3.640633
  0
VERTEX
  8
央铋_1
 62
    39
  6
CONTINUOUS
 10
0.245414
 20
3.607476
  0
VERTEX
  8
央铋_1
 62
    39
  6
CONTINUOUS
 10
0.284115
 20
3.569876
  0
VERTEX
  8
央铋_1
 62
    39
  6
CONTINUOUS
 10
0.317959
 20
3.528899
  0
VERTEX
  8
央铋_1
 62
    39
  6
CONTINUOUS
 10
0.345976
 20
3.485612
  0
VERTEX
  8
央铋_1
 62
    39
  6
CONTINUOUS
 10
0.367191
 20
3.441081
  0
VERTEX
  8
央铋_1
 62
    39
  6
CONTINUOUS
 10
0.380634
 20
3.396375
  0
VERTEX
  8
央铋_1
 62
    39
  6
CONTINUOUS
 10
0.385331
 20
3.352559
  0
VERTEX
  8
央铋_1
 62
    39
  6
CONTINUOUS
 10
0.384943
 20
3.325111
  0
VERTEX
  8
央铋_1
 62
    39
  6
CONTINUOUS
 10
0.383832
 20
3.288543
  0
VERTEX
  8
央铋_1
 62
    39
  6
CONTINUOUS
 10
0.382073
 20
3.243930
  0
VERTEX
  8
央铋_1
 62
    39
  6
CONTINUOUS
 10
0.379742
 20
3.192342
  0
VERTEX
  8
央铋_1
 62
    39
  6
CONTINUOUS
 10
0.376916
 20
3.134854
  0
VERTEX
  8
央铋_1
 62
    39
  6
CONTINUOUS
 10
0.373671
 20
3.072538
  0
VERTEX
  8
央铋_1
 62
    39
  6
CONTINUOUS
 10
0.370082
 20
3.006467
  0
VERTEX
  8
央铋_1
 62
    39
  6
CONTINUOUS
 10
0.366227
 20
2.937714
  0
VERTEX
  8
央铋_1
 62
    39
  6
CONTINUOUS
 10
0.362182
 20
2.867352
  0
VERTEX
  8
央铋_1
 62
    39
  6
CONTINUOUS
 10
0.358022
 20
2.796453
  0
VERTEX
  8
央铋_1
 62
    39
  6
CONTINUOUS
 10
0.353824
 20
2.726091
  0
VERTEX
  8
央铋_1
 62
    39
  6
CONTINUOUS
 10
0.349664
 20
2.657338
  0
VERTEX
  8
央铋_1
 62
    39
  6
CONTINUOUS
 10
0.345619
 20
2.591267
  0
VERTEX
  8
央铋_1
 62
    39
  6
CONTINUOUS
 10
0.341764
 20
2.528952
  0
VERTEX
  8
央铋_1
 62
    39
  6
CONTINUOUS
 10
0.338176
 20
2.471464
  0
VERTEX
  8
央铋_1
 62
    39
  6
CONTINUOUS
 10
0.334931
 20
2.419877
  0
VERTEX
  8
央铋_1
 62
    39
  6
CONTINUOUS
 10
0.332104
 20
2.375264
  0
VERTEX
  8
央铋_1
 62
    39
  6
CONTINUOUS
 10
0.329774
 20
2.338697
  0
VERTEX
  8
央铋_1
 62
    39
  6
CONTINUOUS
 10
0.328015
 20
2.311249
  0
VERTEX
  8
央铋_1
 62
    39
  6
CONTINUOUS
 10
0.326903
 20
2.293994
  0
VERTEX
  8
央铋_1
 62
    39
  6
CONTINUOUS
 10
0.326516
 20
2.288004
  0
VERTEX
  8
央铋_1
 62
    39
  6
CONTINUOUS
 10
0.330888
 20
2.287884
  0
VERTEX
  8
央铋_1
 62
    39
  6
CONTINUOUS
 10
0.343636
 20
2.287537
  0
VERTEX
  8
央铋_1
 62
    39
  6
CONTINUOUS
 10
0.364209
 20
2.286984
  0
VERTEX
  8
央铋_1
 62
    39
  6
CONTINUOUS
 10
0.392052
 20
2.286244
  0
VERTEX
  8
央铋_1
 62
    39
  6
CONTINUOUS
 10
0.426615
 20
2.285337
  0
VERTEX
  8
央铋_1
 62
    39
  6
CONTINUOUS
 10
0.467344
 20
2.284283
  0
VERTEX
  8
央铋_1
 62
    39
  6
CONTINUOUS
 10
0.513688
 20
2.283101
  0
VERTEX
  8
央铋_1
 62
    39
  6
CONTINUOUS
 10
0.565093
 20
2.281812
  0
VERTEX
  8
央铋_1
 62
    39
  6
CONTINUOUS
 10
0.621008
 20
2.280436
  0
VERTEX
  8
央铋_1
 62
    39
  6
CONTINUOUS
 10
0.680880
 20
2.278992
  0
VERTEX
  8
央铋_1
 62
    39
  6
CONTINUOUS
 10
0.744156
 20
2.277501
  0
VERTEX
  8
央铋_1
 62
    39
  6
CONTINUOUS
 10
0.810285
 20
2.275981
  0
VERTEX
  8
央铋_1
 62
    39
  6
CONTINUOUS
 10
0.878714
 20
2.274454
  0
VERTEX
  8
央铋_1
 62
    39
  6
CONTINUOUS
 10
0.948891
 20
2.272939
  0
VERTEX
  8
央铋_1
 62
    39
  6
CONTINUOUS
 10
1.020262
 20
2.271455
  0
VERTEX
  8
央铋_1
 62
    39
  6
CONTINUOUS
 10
1.092276
 20
2.270023
  0
VERTEX
  8
央铋_1
 62
    39
  6
CONTINUOUS
 10
1.164381
 20
2.268663
  0
VERTEX
  8
央铋_1
 62
    39
  6
CONTINUOUS
 10
1.236024
 20
2.267394
  0
VERTEX
  8
央铋_1
 62
    39
  6
CONTINUOUS
 10
1.306652
 20
2.266236
  0
VERTEX
  8
央铋_1
 62
    39
  6
CONTINUOUS
 10
1.375714
 20
2.265210
  0
VERTEX
  8
央铋_1
 62
    39
  6
CONTINUOUS
 10
1.442656
 20
2.264334
  0
VERTEX
  8
央铋_1
 62
    39
  6
CONTINUOUS
 10
1.506927
 20
2.263630
  0
VERTEX
  8
央铋_1
 62
    39
  6
CONTINUOUS
 10
1.567974
 20
2.263117
  0
VERTEX
  8
央铋_1
 62
    39
  6
CONTINUOUS
 10
1.625244
 20
2.262814
  0
VERTEX
  8
央铋_1
 62
    39
  6
CONTINUOUS
 10
1.678186
 20
2.262741
  0
VERTEX
  8
央铋_1
 62
    39
  6
CONTINUOUS
 10
1.726247
 20
2.262920
  0
VERTEX
  8
央铋_1
 62
    39
  6
CONTINUOUS
 10
1.768874
 20
2.263368
  0
VERTEX
  8
央铋_1
 62
    39
  6
CONTINUOUS
 10
1.805515
 20
2.264107
  0
VERTEX
  8
央铋_1
 62
    39
  6
CONTINUOUS
 10
1.835618
 20
2.265156
  0
VERTEX
  8
央铋_1
 62
    39
  6
CONTINUOUS
 10
1.858631
 20
2.266535
  0
VERTEX
  8
央铋_1
 62
    39
  6
CONTINUOUS
 10
1.874000
 20
2.268264
  0
VERTEX
  8
央铋_1
 62
    39
  6
CONTINUOUS
 10
1.898064
 20
2.276287
  0
VERTEX
  8
央铋_1
 62
    39
  6
CONTINUOUS
 10
1.913222
 20
2.289710
  0
VERTEX
  8
央铋_1
 62
    39
  6
CONTINUOUS
 10
1.921991
 20
2.307372
  0
VERTEX
  8
央铋_1
 62
    39
  6
CONTINUOUS
 10
1.926888
 20
2.328110
  0
VERTEX
  8
央铋_1
 62
    39
  6
CONTINUOUS
 10
1.930427
 20
2.350762
  0
VERTEX
  8
央铋_1
 62
    39
  6
CONTINUOUS
 10
1.935126
 20
2.374164
  0
VERTEX
  8
央铋_1
 62
    39
  6
CONTINUOUS
 10
1.943502
 20
2.397156
  0
VERTEX
  8
央铋_1
 62
    39
  6
CONTINUOUS
 10
1.958069
 20
2.418573
  0
VERTEX
  8
央铋_1
 62
    39
  6
CONTINUOUS
 10
1.981345
 20
2.437255
  0
VERTEX
  8
央铋_1
 62
    39
  6
CONTINUOUS
 10
2.015846
 20
2.452038
  0
VERTEX
  8
央铋_1
 62
    39
  6
CONTINUOUS
 10
2.064088
 20
2.461761
  0
VERTEX
  8
央铋_1
 62
    39
  6
CONTINUOUS
 10
2.128587
 20
2.465260
  0
VERTEX
  8
央铋_1
 62
    39
  6
CONTINUOUS
 10
2.193630
 20
2.462194
  0
VERTEX
  8
央铋_1
 62
    39
  6
CONTINUOUS
 10
2.253163
 20
2.453318
  0
VERTEX
  8
央铋_1
 62
    39
  6
CONTINUOUS
 10
2.307240
 20
2.439117
  0
VERTEX
  8
央铋_1
 62
    39
  6
CONTINUOUS
 10
2.355913
 20
2.420073
  0
VERTEX
  8
央铋_1
 62
    39
  6
CONTINUOUS
 10
2.399236
 20
2.396669
  0
VERTEX
  8
央铋_1
 62
    39
  6
CONTINUOUS
 10
2.437262
 20
2.369391
  0
VERTEX
  8
央铋_1
 62
    39
  6
CONTINUOUS
 10
2.470045
 20
2.338720
  0
VERTEX
  8
央铋_1
 62
    39
  6
CONTINUOUS
 10
2.497638
 20
2.305141
  0
VERTEX
  8
央铋_1
 62
    39
  6
CONTINUOUS
 10
2.520095
 20
2.269137
  0
VERTEX
  8
央铋_1
 62
    39
  6
CONTINUOUS
 10
2.537468
 20
2.231192
  0
VERTEX
  8
央铋_1
 62
    39
  6
CONTINUOUS
 10
2.549811
 20
2.191789
  0
VERTEX
  8
央铋_1
 62
    39
  6
CONTINUOUS
 10
2.557178
 20
2.151412
  0
VERTEX
  8
央铋_1
 62
    39
  6
CONTINUOUS
 10
2.559622
 20
2.110543
  0
VERTEX
  8
央铋_1
 62
    39
  6
CONTINUOUS
 10
2.559583
 20
2.070480
  0
VERTEX
  8
央铋_1
 62
    39
  6
CONTINUOUS
 10
2.559325
 20
2.026662
  0
VERTEX
  8
央铋_1
 62
    39
  6
CONTINUOUS
 10
2.558635
 20
1.979565
  0
VERTEX
  8
央铋_1
 62
    39
  6
CONTINUOUS
 10
2.557298
 20
1.929663
  0
VERTEX
  8
央铋_1
 62
    39
  6
CONTINUOUS
 10
2.555103
 20
1.877432
  0
VERTEX
  8
央铋_1
 62
    39
  6
CONTINUOUS
 10
2.551836
 20
1.823348
  0
VERTEX
  8
央铋_1
 62
    39
  6
CONTINUOUS
 10
2.547283
 20
1.767885
  0
VERTEX
  8
央铋_1
 62
    39
  6
CONTINUOUS
 10
2.541233
 20
1.711518
  0
VERTEX
  8
央铋_1
 62
    39
  6
CONTINUOUS
 10
2.533471
 20
1.654724
  0
VERTEX
  8
央铋_1
 62
    39
  6
CONTINUOUS
 10
2.523784
 20
1.597977
  0
VERTEX
  8
央铋_1
 62
    39
  6
CONTINUOUS
 10
2.511959
 20
1.541752
  0
VERTEX
  8
央铋_1
 62
    39
  6
CONTINUOUS
 10
2.497784
 20
1.486525
  0
VERTEX
  8
央铋_1
 62
    39
  6
CONTINUOUS
 10
2.481044
 20
1.432771
  0
VERTEX
  8
央铋_1
 62
    39
  6
CONTINUOUS
 10
2.461528
 20
1.380965
  0
VERTEX
  8
央铋_1
 62
    39
  6
CONTINUOUS
 10
2.451998
 20
1.354048
  0
VERTEX
  8
央铋_1
 62
    39
  6
CONTINUOUS
 10
2.442978
 20
1.320928
  0
VERTEX
  8
央铋_1
 62
    39
  6
CONTINUOUS
 10
2.434453
 20
1.282103
  0
VERTEX
  8
央铋_1
 62
    39
  6
CONTINUOUS
 10
2.426412
 20
1.238073
  0
VERTEX
  8
央铋_1
 62
    39
  6
CONTINUOUS
 10
2.418841
 20
1.189337
  0
VERTEX
  8
央铋_1
 62
    39
  6
CONTINUOUS
 10
2.411727
 20
1.136394
  0
VERTEX
  8
央铋_1
 62
    39
  6
CONTINUOUS
 10
2.405057
 20
1.079745
  0
VERTEX
  8
央铋_1
 62
    39
  6
CONTINUOUS
 10
2.398818
 20
1.019889
  0
VERTEX
  8
央铋_1
 62
    39
  6
CONTINUOUS
 10
2.392996
 20
0.957324
  0
VERTEX
  8
央铋_1
 62
    39
  6
CONTINUOUS
 10
2.387579
 20
0.892551
  0
VERTEX
  8
央铋_1
 62
    39
  6
CONTINUOUS
 10
2.382554
 20
0.826069
  0
VERTEX
  8
央铋_1
 62
    39
  6
CONTINUOUS
 10
2.377907
 20
0.758378
  0
VERTEX
  8
央铋_1
 62
    39
  6
CONTINUOUS
 10
2.373626
 20
0.689976
  0
VERTEX
  8
央铋_1
 62
    39
  6
CONTINUOUS
 10
2.369697
 20
0.621363
  0
VERTEX
  8
央铋_1
 62
    39
  6
CONTINUOUS
 10
2.366108
 20
0.553040
  0
VERTEX
  8
央铋_1
 62
    39
  6
CONTINUOUS
 10
2.362845
 20
0.485505
  0
VERTEX
  8
央铋_1
 62
    39
  6
CONTINUOUS
 10
2.359895
 20
0.419257
  0
VERTEX
  8
央铋_1
 62
    39
  6
CONTINUOUS
 10
2.357245
 20
0.354796
  0
VERTEX
  8
央铋_1
 62
    39
  6
CONTINUOUS
 10
2.354882
 20
0.292623
  0
VERTEX
  8
央铋_1
 62
    39
  6
CONTINUOUS
 10
2.352794
 20
0.233235
  0
VERTEX
  8
央铋_1
 62
    39
  6
CONTINUOUS
 10
2.350966
 20
0.177133
  0
VERTEX
  8
央铋_1
 62
    39
  6
CONTINUOUS
 10
2.349386
 20
0.124815
  0
VERTEX
  8
央铋_1
 62
    39
  6
CONTINUOUS
 10
2.348041
 20
0.076783
  0
VERTEX
  8
央铋_1
 62
    39
  6
CONTINUOUS
 10
2.346918
 20
0.033534
  0
VERTEX
  8
央铋_1
 62
    39
  6
CONTINUOUS
 10
2.346003
 20
-0.004432
  0
VERTEX
  8
央铋_1
 62
    39
  6
CONTINUOUS
 10
2.345284
 20
-0.036614
  0
VERTEX
  8
央铋_1
 62
    39
  6
CONTINUOUS
 10
2.344747
 20
-0.062515
  0
VERTEX
  8
央铋_1
 62
    39
  6
CONTINUOUS
 10
2.344380
 20
-0.081633
  0
VERTEX
  8
央铋_1
 62
    39
  6
CONTINUOUS
 10
2.344170
 20
-0.093471
  0
VERTEX
  8
央铋_1
 62
    39
  6
CONTINUOUS
 10
2.344102
 20
-0.097528
  0
VERTEX
  8
央铋_1
 62
    39
  6
CONTINUOUS
 10
-2.376492
 20
-0.156752
  0
VERTEX
  8
央铋_1
 62
    39
  6
CONTINUOUS
 10
-2.375915
 20
-0.153830
  0
VERTEX
  8
央铋_1
 62
    39
  6
CONTINUOUS
 10
-2.374237
 20
-0.145245
  0
VERTEX
  8
央铋_1
 62
    39
  6
CONTINUOUS
 10
-2.371536
 20
-0.131263
  0
VERTEX
  8
央铋_1
 62
    39
  6
CONTINUOUS
 10
-2.367889
 20
-0.112156
  0
VERTEX
  8
央铋_1
 62
    39
  6
CONTINUOUS
 10
-2.363375
 20
-0.088190
  0
VERTEX
  8
央铋_1
 62
    39
  6
CONTINUOUS
 10
-2.358073
 20
-0.059635
  0
VERTEX
  8
央铋_1
 62
    39
  6
CONTINUOUS
 10
-2.352060
 20
-0.026760
  0
VERTEX
  8
央铋_1
 62
    39
  6
CONTINUOUS
 10
-2.345414
 20
0.010166
  0
VERTEX
  8
央铋_1
 62
    39
  6
CONTINUOUS
 10
-2.338214
 20
0.050875
  0
VERTEX
  8
央铋_1
 62
    39
  6
CONTINUOUS
 10
-2.330537
 20
0.095099
  0
VERTEX
  8
央铋_1
 62
    39
  6
CONTINUOUS
 10
-2.322463
 20
0.142568
  0
VERTEX
  8
央铋_1
 62
    39
  6
CONTINUOUS
 10
-2.314068
 20
0.193013
  0
VERTEX
  8
央铋_1
 62
    39
  6
CONTINUOUS
 10
-2.305432
 20
0.246166
  0
VERTEX
  8
央铋_1
 62
    39
  6
CONTINUOUS
 10
-2.296632
 20
0.301758
  0
VERTEX
  8
央铋_1
 62
    39
  6
CONTINUOUS
 10
-2.287746
 20
0.359521
  0
VERTEX
  8
央铋_1
 62
    39
  6
CONTINUOUS
 10
-2.278853
 20
0.419185
  0
VERTEX
  8
央铋_1
 62
    39
  6
CONTINUOUS
 10
-2.270031
 20
0.480482
  0
VERTEX
  8
央铋_1
 62
    39
  6
CONTINUOUS
 10
-2.261358
 20
0.543143
  0
VERTEX
  8
央铋_1
 62
    39
  6
CONTINUOUS
 10
-2.252912
 20
0.606899
  0
VERTEX
  8
央铋_1
 62
    39
  6
CONTINUOUS
 10
-2.244771
 20
0.671481
  0
VERTEX
  8
央铋_1
 62
    39
  6
CONTINUOUS
 10
-2.237013
 20
0.736622
  0
VERTEX
  8
央铋_1
 62
    39
  6
CONTINUOUS
 10
-2.229717
 20
0.802051
  0
VERTEX
  8
央铋_1
 62
    39
  6
CONTINUOUS
 10
-2.222960
 20
0.867501
  0
VERTEX
  8
央铋_1
 62
    39
  6
CONTINUOUS
 10
-2.216822
 20
0.932702
  0
VERTEX
  8
央铋_1
 62
    39
  6
CONTINUOUS
 10
-2.211379
 20
0.997386
  0
VERTEX
  8
央铋_1
 62
    39
  6
CONTINUOUS
 10
-2.206710
 20
1.061284
  0
VERTEX
  8
央铋_1
 62
    39
  6
CONTINUOUS
 10
-2.202894
 20
1.124127
  0
VERTEX
  8
央铋_1
 62
    39
  6
CONTINUOUS
 10
-2.200008
 20
1.185647
  0
VERTEX
  8
央铋_1
 62
    39
  6
CONTINUOUS
 10
-2.198130
 20
1.245574
  0
VERTEX
  8
央铋_1
 62
    39
  6
CONTINUOUS
 10
-2.197340
 20
1.303640
  0
VERTEX
  8
央铋_1
 62
    39
  6
CONTINUOUS
 10
-2.197714
 20
1.359577
  0
VERTEX
  8
央铋_1
 62
    39
  6
CONTINUOUS
 10
-2.199331
 20
1.413114
  0
VERTEX
  8
央铋_1
 62
    39
  6
CONTINUOUS
 10
-2.202269
 20
1.463985
  0
VERTEX
  8
央铋_1
 62
    39
  6
CONTINUOUS
 10
-2.206606
 20
1.511920
  0
VERTEX
  8
央铋_1
 62
    39
  6
CONTINUOUS
 10
-2.212421
 20
1.556649
  0
VERTEX
  8
央铋_1
 62
    39
  6
CONTINUOUS
 10
-2.219791
 20
1.597906
  0
VERTEX
  8
央铋_1
 62
    39
  6
CONTINUOUS
 10
-2.242360
 20
1.717407
  0
VERTEX
  8
央铋_1
 62
    39
  6
CONTINUOUS
 10
-2.257328
 20
1.818775
  0
VERTEX
  8
央铋_1
 62
    39
  6
CONTINUOUS
 10
-2.265845
 20
1.903431
  0
VERTEX
  8
央铋_1
 62
    39
  6
CONTINUOUS
 10
-2.269058
 20
1.972799
  0
VERTEX
  8
央铋_1
 62
    39
  6
CONTINUOUS
 10
-2.268116
 20
2.028302
  0
VERTEX
  8
央铋_1
 62
    39
  6
CONTINUOUS
 10
-2.264167
 20
2.071362
  0
VERTEX
  8
央铋_1
 62
    39
  6
CONTINUOUS
 10
-2.258361
 20
2.103402
  0
VERTEX
  8
央铋_1
 62
    39
  6
CONTINUOUS
 10
-2.251846
 20
2.125845
  0
VERTEX
  8
央铋_1
 62
    39
  6
CONTINUOUS
 10
-2.245770
 20
2.140115
  0
VERTEX
  8
央铋_1
 62
    39
  6
CONTINUOUS
 10
-2.241283
 20
2.147633
  0
VERTEX
  8
央铋_1
 62
    39
  6
CONTINUOUS
 10
-2.239531
 20
2.149823
  0
VERTEX
  8
央铋_1
 62
    39
  6
CONTINUOUS
 10
-2.239209
 20
2.158616
  0
VERTEX
  8
央铋_1
 62
    39
  6
CONTINUOUS
 10
-2.236952
 20
2.182183
  0
VERTEX
  8
央铋_1
 62
    39
  6
CONTINUOUS
 10
-2.230826
 20
2.216302
  0
VERTEX
  8
央铋_1
 62
    39
  6
CONTINUOUS
 10
-2.218896
 20
2.256753
  0
VERTEX
  8
央铋_1
 62
    39
  6
CONTINUOUS
 10
-2.199227
 20
2.299314
  0
VERTEX
  8
央铋_1
 62
    39
  6
CONTINUOUS
 10
-2.169886
 20
2.339765
  0
VERTEX
  8
央铋_1
 62
    39
  6
CONTINUOUS
 10
-2.128936
 20
2.373884
  0
VERTEX
  8
央铋_1
 62
    39
  6
CONTINUOUS
 10
-2.074445
 20
2.397450
  0
VERTEX
  8
央铋_1
 62
    39
  6
CONTINUOUS
 10
-2.004476
 20
2.406244
  0
VERTEX
  8
央铋_1
 62
    39
  6
CONTINUOUS
 10
-2.004476
 20
2.406244
  0
VERTEX
  8
央铋_1
 62
    39
  6
CONTINUOUS
 10
-1.946301
 20
2.403490
  0
VERTEX
  8
央铋_1
 62
    39
  6
CONTINUOUS
 10
-1.898455
 20
2.395939
  0
VERTEX
  8
央铋_1
 62
    39
  6
CONTINUOUS
 10
-1.858642
 20
2.384657
  0
VERTEX
  8
央铋_1
 62
    39
  6
CONTINUOUS
 10
-1.824567
 20
2.370710
  0
VERTEX
  8
央铋_1
 62
    39
  6
CONTINUOUS
 10
-1.793935
 20
2.355164
  0
VERTEX
  8
央铋_1
 62
    39
  6
CONTINUOUS
 10
-1.764451
 20
2.339084
  0
VERTEX
  8
央铋_1
 62
    39
  6
CONTINUOUS
 10
-1.733819
 20
2.323538
  0
VERTEX
  8
央铋_1
 62
    39
  6
CONTINUOUS
 10
-1.699744
 20
2.309591
  0
VERTEX
  8
央铋_1
 62
    39
  6
CONTINUOUS
 10
-1.659931
 20
2.298309
  0
VERTEX
  8
央铋_1
 62
    39
  6
CONTINUOUS
 10
-1.612085
 20
2.290758
  0
VERTEX
  8
央铋_1
 62
    39
  6
CONTINUOUS
 10
-1.553909
 20
2.288004
  0
VERTEX
  8
央铋_1
 62
    39
  6
CONTINUOUS
 10
-1.523998
 20
2.287838
  0
VERTEX
  8
央铋_1
 62
    39
  6
CONTINUOUS
 10
-1.488825
 20
2.287381
  0
VERTEX
  8
央铋_1
 62
    39
  6
CONTINUOUS
 10
-1.448865
 20
2.286692
  0
VERTEX
  8
央铋_1
 62
    39
  6
CONTINUOUS
 10
-1.404592
 20
2.285834
  0
VERTEX
  8
央铋_1
 62
    39
  6
CONTINUOUS
 10
-1.356481
 20
2.284867
  0
VERTEX
  8
央铋_1
 62
    39
  6
CONTINUOUS
 10
-1.305007
 20
2.283852
  0
VERTEX
  8
央铋_1
 62
    39
  6
CONTINUOUS
 10
-1.250644
 20
2.282849
  0
VERTEX
  8
央铋_1
 62
    39
  6
CONTINUOUS
 10
-1.193867
 20
2.281920
  0
VERTEX
  8
央铋_1
 62
    39
  6
CONTINUOUS
 10
-1.135152
 20
2.281124
  0
VERTEX
  8
央铋_1
 62
    39
  6
CONTINUOUS
 10
-1.074971
 20
2.280524
  0
VERTEX
  8
央铋_1
 62
    39
  6
CONTINUOUS
 10
-1.013802
 20
2.280179
  0
VERTEX
  8
央铋_1
 62
    39
  6
CONTINUOUS
 10
-0.952117
 20
2.280151
  0
VERTEX
  8
央铋_1
 62
    39
  6
CONTINUOUS
 10
-0.890392
 20
2.280500
  0
VERTEX
  8
央铋_1
 62
    39
  6
CONTINUOUS
 10
-0.829101
 20
2.281286
  0
VERTEX
  8
央铋_1
 62
    39
  6
CONTINUOUS
 10
-0.768720
 20
2.282572
  0
VERTEX
  8
央铋_1
 62
    39
  6
CONTINUOUS
 10
-0.709722
 20
2.284417
  0
VERTEX
  8
央铋_1
 62
    39
  6
CONTINUOUS
 10
-0.652583
 20
2.286883
  0
VERTEX
  8
央铋_1
 62
    39
  6
CONTINUOUS
 10
-0.597777
 20
2.290030
  0
VERTEX
  8
央铋_1
 62
    39
  6
CONTINUOUS
 10
-0.545779
 20
2.293919
  0
VERTEX
  8
央铋_1
 62
    39
  6
CONTINUOUS
 10
-0.497064
 20
2.298611
  0
VERTEX
  8
央铋_1
 62
    39
  6
CONTINUOUS
 10
-0.452106
 20
2.304166
  0
VERTEX
  8
央铋_1
 62
    39
  6
CONTINUOUS
 10
-0.411380
 20
2.310646
  0
VERTEX
  8
央铋_1
 62
    39
  6
CONTINUOUS
 10
-0.375361
 20
2.318110
  0
VERTEX
  8
央铋_1
 62
    39
  6
CONTINUOUS
 10
-0.344523
 20
2.326621
  0
VERTEX
  8
央铋_1
 62
    39
  6
CONTINUOUS
 10
-0.319342
 20
2.336239
  0
VERTEX
  8
央铋_1
 62
    39
  6
CONTINUOUS
 10
-0.300291
 20
2.347024
  0
VERTEX
  8
央铋_1
 62
    39
  6
CONTINUOUS
 10
-0.284735
 20
2.362864
  0
VERTEX
  8
央铋_1
 62
    39
  6
CONTINUOUS
 10
-0.272189
 20
2.385349
  0
VERTEX
  8
央铋_1
 62
    39
  6
CONTINUOUS
 10
-0.262398
 20
2.413941
  0
VERTEX
  8
央铋_1
 62
    39
  6
CONTINUOUS
 10
-0.255106
 20
2.448101
  0
VERTEX
  8
央铋_1
 62
    39
  6
CONTINUOUS
 10
-0.250058
 20
2.487290
  0
VERTEX
  8
央铋_1
 62
    39
  6
CONTINUOUS
 10
-0.247001
 20
2.530970
  0
VERTEX
  8
央铋_1
 62
    39
  6
CONTINUOUS
 10
-0.245678
 20
2.578601
  0
VERTEX
  8
央铋_1
 62
    39
  6
CONTINUOUS
 10
-0.245834
 20
2.629644
  0
VERTEX
  8
央铋_1
 62
    39
  6
CONTINUOUS
 10
-0.247215
 20
2.683561
  0
VERTEX
  8
央铋_1
 62
    39
  6
CONTINUOUS
 10
-0.249566
 20
2.739814
  0
VERTEX
  8
央铋_1
 62
    39
  6
CONTINUOUS
 10
-0.252631
 20
2.797863
  0
VERTEX
  8
央铋_1
 62
    39
  6
CONTINUOUS
 10
-0.256156
 20
2.857169
  0
VERTEX
  8
央铋_1
 62
    39
  6
CONTINUOUS
 10
-0.259885
 20
2.917194
  0
VERTEX
  8
央铋_1
 62
    39
  6
CONTINUOUS
 10
-0.263564
 20
2.977398
  0
VERTEX
  8
央铋_1
 62
    39
  6
CONTINUOUS
 10
-0.266938
 20
3.037244
  0
VERTEX
  8
央铋_1
 62
    39
  6
CONTINUOUS
 10
-0.269751
 20
3.096192
  0
VERTEX
  8
央铋_1
 62
    39
  6
CONTINUOUS
 10
-0.271749
 20
3.153703
  0
VERTEX
  8
央铋_1
 62
    39
  6
CONTINUOUS
 10
-0.272676
 20
3.209239
  0
VERTEX
  8
央铋_1
 62
    39
  6
CONTINUOUS
 10
-0.272278
 20
3.262261
  0
VERTEX
  8
央铋_1
 62
    39
  6
CONTINUOUS
 10
-0.270299
 20
3.312230
  0
VERTEX
  8
央铋_1
 62
    39
  6
CONTINUOUS
 10
-0.266485
 20
3.358607
  0
VERTEX
  8
央铋_1
 62
    39
  6
CONTINUOUS
 10
-0.260581
 20
3.400853
  0
VERTEX
  8
央铋_1
 62
    39
  6
CONTINUOUS
 10
-0.252331
 20
3.438430
  0
VERTEX
  8
央铋_1
 62
    39
  6
CONTINUOUS
 10
-0.241480
 20
3.470799
  0
VERTEX
  8
央铋_1
 62
    39
  6
CONTINUOUS
 10
-0.209664
 20
3.548922
  0
VERTEX
  8
央铋_1
 62
    39
  6
CONTINUOUS
 10
-0.185187
 20
3.607630
  0
VERTEX
  8
央铋_1
 62
    39
  6
CONTINUOUS
 10
-0.164377
 20
3.649697
  0
VERTEX
  8
央铋_1
 62
    39
  6
CONTINUOUS
 10
-0.143565
 20
3.677895
  0
VERTEX
  8
央铋_1
 62
    39
  6
CONTINUOUS
 10
-0.119081
 20
3.694999
  0
VERTEX
  8
央铋_1
 62
    39
  6
CONTINUOUS
 10
-0.087253
 20
3.703782
  0
VERTEX
  8
央铋_1
 62
    39
  6
CONTINUOUS
 10
-0.044413
 20
3.707018
  0
SEQEND
  8
0
  0
POLYLINE
  8
央铋_1
 62
    39
  6
CONTINUOUS
 66
     1
 40
0.003000
 41
0.003000
 70
     1
  0
VERTEX
  8
央铋_1
 62
    39
  6
CONTINUOUS
 10
0.365791
 20
1.893602
  0
VERTEX
  8
央铋_1
 62
    39
  6
CONTINUOUS
 10
0.386479
 20
1.899262
  0
VERTEX
  8
央铋_1
 62
    39
  6
CONTINUOUS
 10
0.413013
 20
1.904398
  0
VERTEX
  8
央铋_1
 62
    39
  6
CONTINUOUS
 10
0.444970
 20
1.909015
  0
VERTEX
  8
央铋_1
 62
    39
  6
CONTINUOUS
 10
0.481928
 20
1.913118
  0
VERTEX
  8
央铋_1
 62
    39
  6
CONTINUOUS
 10
0.523466
 20
1.916711
  0
VERTEX
  8
央铋_1
 62
    39
  6
CONTINUOUS
 10
0.569161
 20
1.919800
  0
VERTEX
  8
央铋_1
 62
    39
  6
CONTINUOUS
 10
0.618590
 20
1.922387
  0
VERTEX
  8
央铋_1
 62
    39
  6
CONTINUOUS
 10
0.671333
 20
1.924478
  0
VERTEX
  8
央铋_1
 62
    39
  6
CONTINUOUS
 10
0.726965
 20
1.926078
  0
VERTEX
  8
央铋_1
 62
    39
  6
CONTINUOUS
 10
0.785066
 20
1.927191
  0
VERTEX
  8
央铋_1
 62
    39
  6
CONTINUOUS
 10
0.845212
 20
1.927821
  0
VERTEX
  8
央铋_1
 62
    39
  6
CONTINUOUS
 10
0.906983
 20
1.927973
  0
VERTEX
  8
央铋_1
 62
    39
  6
CONTINUOUS
 10
0.969955
 20
1.927652
  0
VERTEX
  8
央铋_1
 62
    39
  6
CONTINUOUS
 10
1.033706
 20
1.926861
  0
VERTEX
  8
央铋_1
 62
    39
  6
CONTINUOUS
 10
1.097814
 20
1.925606
  0
VERTEX
  8
央铋_1
 62
    39
  6
CONTINUOUS
 10
1.161857
 20
1.923891
  0
VERTEX
  8
央铋_1
 62
    39
  6
CONTINUOUS
 10
1.225413
 20
1.921721
  0
VERTEX
  8
央铋_1
 62
    39
  6
CONTINUOUS
 10
1.288059
 20
1.919100
  0
VERTEX
  8
央铋_1
 62
    39
  6
CONTINUOUS
 10
1.349374
 20
1.916032
  0
VERTEX
  8
央铋_1
 62
    39
  6
CONTINUOUS
 10
1.408934
 20
1.912523
  0
VERTEX
  8
央铋_1
 62
    39
  6
CONTINUOUS
 10
1.466319
 20
1.908576
  0
VERTEX
  8
央铋_1
 62
    39
  6
CONTINUOUS
 10
1.521105
 20
1.904197
  0
VERTEX
  8
央铋_1
 62
    39
  6
CONTINUOUS
 10
1.572870
 20
1.899389
  0
VERTEX
  8
央铋_1
 62
    39
  6
CONTINUOUS
 10
1.621193
 20
1.894157
  0
VERTEX
  8
央铋_1
 62
    39
  6
CONTINUOUS
 10
1.665650
 20
1.888506
  0
VERTEX
  8
央铋_1
 62
    39
  6
CONTINUOUS
 10
1.705820
 20
1.882441
  0
VERTEX
  8
央铋_1
 62
    39
  6
CONTINUOUS
 10
1.741281
 20
1.875965
  0
VERTEX
  8
央铋_1
 62
    39
  6
CONTINUOUS
 10
1.771610
 20
1.869084
  0
VERTEX
  8
央铋_1
 62
    39
  6
CONTINUOUS
 10
1.796386
 20
1.861801
  0
VERTEX
  8
央铋_1
 62
    39
  6
CONTINUOUS
 10
1.815185
 20
1.854122
  0
VERTEX
  8
央铋_1
 62
    39
  6
CONTINUOUS
 10
1.855345
 20
1.825599
  0
VERTEX
  8
央铋_1
 62
    39
  6
CONTINUOUS
 10
1.882587
 20
1.789021
  0
VERTEX
  8
央铋_1
 62
    39
  6
CONTINUOUS
 10
1.898082
 20
1.746992
  0
VERTEX
  8
央铋_1
 62
    39
  6
CONTINUOUS
 10
1.903003
 20
1.702117
  0
VERTEX
  8
央铋_1
 62
    39
  6
CONTINUOUS
 10
1.898522
 20
1.657000
  0
VERTEX
  8
央铋_1
 62
    39
  6
CONTINUOUS
 10
1.885811
 20
1.614246
  0
VERTEX
  8
央铋_1
 62
    39
  6
CONTINUOUS
 10
1.866042
 20
1.576458
  0
VERTEX
  8
央铋_1
 62
    39
  6
CONTINUOUS
 10
1.840387
 20
1.546243
  0
VERTEX
  8
央铋_1
 62
    39
  6
CONTINUOUS
 10
1.810019
 20
1.526203
  0
VERTEX
  8
央铋_1
 62
    39
  6
CONTINUOUS
 10
1.776110
 20
1.518945
  0
VERTEX
  8
央铋_1
 62
    39
  6
CONTINUOUS
 10
1.759576
 20
1.518398
  0
VERTEX
  8
央铋_1
 62
    39
  6
CONTINUOUS
 10
1.736439
 20
1.516842
  0
VERTEX
  8
央铋_1
 62
    39
  6
CONTINUOUS
 10
1.707190
 20
1.514402
  0
VERTEX
  8
央铋_1
 62
    39
  6
CONTINUOUS
 10
1.672317
 20
1.511206
  0
VERTEX
  8
央铋_1
 62
    39
  6
CONTINUOUS
 10
1.632311
 20
1.507378
  0
VERTEX
  8
央铋_1
 62
    39
  6
CONTINUOUS
 10
1.587661
 20
1.503046
  0
VERTEX
  8
央铋_1
 62
    39
  6
CONTINUOUS
 10
1.538856
 20
1.498335
  0
VERTEX
  8
央铋_1
 62
    39
  6
CONTINUOUS
 10
1.486385
 20
1.493372
  0
VERTEX
  8
央铋_1
 62
    39
  6
CONTINUOUS
 10
1.430740
 20
1.488283
  0
VERTEX
  8
央铋_1
 62
    39
  6
CONTINUOUS
 10
1.372408
 20
1.483193
  0
VERTEX
  8
央铋_1
 62
    39
  6
CONTINUOUS
 10
1.311879
 20
1.478230
  0
VERTEX
  8
央铋_1
 62
    39
  6
CONTINUOUS
 10
1.249644
 20
1.473519
  0
VERTEX
  8
央铋_1
 62
    39
  6
CONTINUOUS
 10
1.186191
 20
1.469187
  0
VERTEX
  8
央铋_1
 62
    39
  6
CONTINUOUS
 10
1.122010
 20
1.465359
  0
VERTEX
  8
央铋_1
 62
    39
  6
CONTINUOUS
 10
1.057590
 20
1.462163
  0
VERTEX
  8
央铋_1
 62
    39
  6
CONTINUOUS
 10
0.993422
 20
1.459723
  0
VERTEX
  8
央铋_1
 62
    39
  6
CONTINUOUS
 10
0.929994
 20
1.458167
  0
VERTEX
  8
央铋_1
 62
    39
  6
CONTINUOUS
 10
0.867796
 20
1.457620
  0
VERTEX
  8
央铋_1
 62
    39
  6
CONTINUOUS
 10
0.807318
 20
1.458209
  0
VERTEX
  8
央铋_1
 62
    39
  6
CONTINUOUS
 10
0.749049
 20
1.460060
  0
VERTEX
  8
央铋_1
 62
    39
  6
CONTINUOUS
 10
0.693478
 20
1.463298
  0
VERTEX
  8
央铋_1
 62
    39
  6
CONTINUOUS
 10
0.641096
 20
1.468051
  0
VERTEX
  8
央铋_1
 62
    39
  6
CONTINUOUS
 10
0.592392
 20
1.474445
  0
VERTEX
  8
央铋_1
 62
    39
  6
CONTINUOUS
 10
0.547855
 20
1.482604
  0
VERTEX
  8
央铋_1
 62
    39
  6
CONTINUOUS
 10
0.507974
 20
1.492657
  0
VERTEX
  8
央铋_1
 62
    39
  6
CONTINUOUS
 10
0.473240
 20
1.504728
  0
VERTEX
  8
央铋_1
 62
    39
  6
CONTINUOUS
 10
0.444142
 20
1.518945
  0
VERTEX
  8
央铋_1
 62
    39
  6
CONTINUOUS
 10
0.444142
 20
1.518945
  0
VERTEX
  8
央铋_1
 62
    39
  6
CONTINUOUS
 10
0.384830
 20
1.562964
  0
VERTEX
  8
央铋_1
 62
    39
  6
CONTINUOUS
 10
0.345734
 20
1.610892
  0
VERTEX
  8
央铋_1
 62
    39
  6
CONTINUOUS
 10
0.323560
 20
1.660718
  0
VERTEX
  8
央铋_1
 62
    39
  6
CONTINUOUS
 10
0.315020
 20
1.710430
  0
VERTEX
  8
央铋_1
 62
    39
  6
CONTINUOUS
 10
0.316822
 20
1.758015
  0
VERTEX
  8
央铋_1
 62
    39
  6
CONTINUOUS
 10
0.325676
 20
1.801460
  0
VERTEX
  8
央铋_1
 62
    39
  6
CONTINUOUS
 10
0.338290
 20
1.838754
  0
VERTEX
  8
央铋_1
 62
    39
  6
CONTINUOUS
 10
0.351375
 20
1.867884
  0
VERTEX
  8
央铋_1
 62
    39
  6
CONTINUOUS
 10
0.361639
 20
1.886837
  0
SEQEND
  8
0
  0
POLYLINE
  8
央铋_1
 62
    39
  6
CONTINUOUS
 66
     1
 40
0.003000
 41
0.003000
 70
     1
  0
VERTEX
  8
央铋_1
 62
    39
  6
CONTINUOUS
 10
0.365791
 20
1.144488
  0
VERTEX
  8
央铋_1
 62
    39
  6
CONTINUOUS
 10
0.388619
 20
1.146853
  0
VERTEX
  8
央铋_1
 62
    39
  6
CONTINUOUS
 10
0.419035
 20
1.149196
  0
VERTEX
  8
央铋_1
 62
    39
  6
CONTINUOUS
 10
0.456357
 20
1.151492
  0
VERTEX
  8
央铋_1
 62
    39
  6
CONTINUOUS
 10
0.499899
 20
1.153721
  0
VERTEX
  8
央铋_1
 62
    39
  6
CONTINUOUS
 10
0.548977
 20
1.155859
  0
VERTEX
  8
央铋_1
 62
    39
  6
CONTINUOUS
 10
0.602906
 20
1.157882
  0
VERTEX
  8
央铋_1
 62
    39
  6
CONTINUOUS
 10
0.661002
 20
1.159770
  0
VERTEX
  8
央铋_1
 62
    39
  6
CONTINUOUS
 10
0.722581
 20
1.161498
  0
VERTEX
  8
央铋_1
 62
    39
  6
CONTINUOUS
 10
0.786957
 20
1.163045
  0
VERTEX
  8
央铋_1
 62
    39
  6
CONTINUOUS
 10
0.853447
 20
1.164386
  0
VERTEX
  8
央铋_1
 62
    39
  6
CONTINUOUS
 10
0.921365
 20
1.165501
  0
VERTEX
  8
央铋_1
 62
    39
  6
CONTINUOUS
 10
0.990028
 20
1.166365
  0
VERTEX
  8
央铋_1
 62
    39
  6
CONTINUOUS
 10
1.058751
 20
1.166956
  0
VERTEX
  8
央铋_1
 62
    39
  6
CONTINUOUS
 10
1.126850
 20
1.167252
  0
VERTEX
  8
央铋_1
 62
    39
  6
CONTINUOUS
 10
1.193639
 20
1.167229
  0
VERTEX
  8
央铋_1
 62
    39
  6
CONTINUOUS
 10
1.258435
 20
1.166865
  0
VERTEX
  8
央铋_1
 62
    39
  6
CONTINUOUS
 10
1.320553
 20
1.166137
  0
VERTEX
  8
央铋_1
 62
    39
  6
CONTINUOUS
 10
1.379308
 20
1.165023
  0
VERTEX
  8
央铋_1
 62
    39
  6
CONTINUOUS
 10
1.434016
 20
1.163499
  0
VERTEX
  8
央铋_1
 62
    39
  6
CONTINUOUS
 10
1.483992
 20
1.161544
  0
VERTEX
  8
央铋_1
 62
    39
  6
CONTINUOUS
 10
1.528553
 20
1.159133
  0
VERTEX
  8
央铋_1
 62
    39
  6
CONTINUOUS
 10
1.567013
 20
1.156245
  0
VERTEX
  8
央铋_1
 62
    39
  6
CONTINUOUS
 10
1.598688
 20
1.152857
  0
VERTEX
  8
央铋_1
 62
    39
  6
CONTINUOUS
 10
1.622893
 20
1.148945
  0
VERTEX
  8
央铋_1
 62
    39
  6
CONTINUOUS
 10
1.638945
 20
1.144488
  0
VERTEX
  8
央铋_1
 62
    39
  6
CONTINUOUS
 10
1.675309
 20
1.124457
  0
VERTEX
  8
央铋_1
 62
    39
  6
CONTINUOUS
 10
1.709608
 20
1.095201
  0
VERTEX
  8
央铋_1
 62
    39
  6
CONTINUOUS
 10
1.739776
 20
1.058562
  0
VERTEX
  8
央铋_1
 62
    39
  6
CONTINUOUS
 10
1.763748
 20
1.016379
  0
VERTEX
  8
央铋_1
 62
    39
  6
CONTINUOUS
 10
1.779458
 20
0.970496
  0
VERTEX
  8
央铋_1
 62
    39
  6
CONTINUOUS
 10
1.784842
 20
0.922752
  0
VERTEX
  8
央铋_1
 62
    39
  6
CONTINUOUS
 10
1.777835
 20
0.874989
  0
VERTEX
  8
央铋_1
 62
    39
  6
CONTINUOUS
 10
1.756370
 20
0.829047
  0
VERTEX
  8
央铋_1
 62
    39
  6
CONTINUOUS
 10
1.744097
 20
0.816883
  0
VERTEX
  8
央铋_1
 62
    39
  6
CONTINUOUS
 10
1.724441
 20
0.805756
  0
VERTEX
  8
央铋_1
 62
    39
  6
CONTINUOUS
 10
1.697965
 20
0.795645
  0
VERTEX
  8
央铋_1
 62
    39
  6
CONTINUOUS
 10
1.665230
 20
0.786527
  0
VERTEX
  8
央铋_1
 62
    39
  6
CONTINUOUS
 10
1.626800
 20
0.778382
  0
VERTEX
  8
央铋_1
 62
    39
  6
CONTINUOUS
 10
1.583235
 20
0.771187
  0
VERTEX
  8
央铋_1
 62
    39
  6
CONTINUOUS
 10
1.535099
 20
0.764921
  0
VERTEX
  8
央铋_1
 62
    39
  6
CONTINUOUS
 10
1.482952
 20
0.759561
  0
VERTEX
  8
央铋_1
 62
    39
  6
CONTINUOUS
 10
1.427359
 20
0.755086
  0
VERTEX
  8
央铋_1
 62
    39
  6
CONTINUOUS
 10
1.368880
 20
0.751475
  0
VERTEX
  8
央铋_1
 62
    39
  6
CONTINUOUS
 10
1.308077
 20
0.748705
  0
VERTEX
  8
央铋_1
 62
    39
  6
CONTINUOUS
 10
1.245514
 20
0.746756
  0
VERTEX
  8
央铋_1
 62
    39
  6
CONTINUOUS
 10
1.181751
 20
0.745604
  0
VERTEX
  8
央铋_1
 62
    39
  6
CONTINUOUS
 10
1.117351
 20
0.745228
  0
VERTEX
  8
央铋_1
 62
    39
  6
CONTINUOUS
 10
1.052877
 20
0.745607
  0
VERTEX
  8
央铋_1
 62
    39
  6
CONTINUOUS
 10
0.988890
 20
0.746719
  0
VERTEX
  8
央铋_1
 62
    39
  6
CONTINUOUS
 10
0.925953
 20
0.748543
  0
VERTEX
  8
央铋_1
 62
    39
  6
CONTINUOUS
 10
0.864627
 20
0.751055
  0
VERTEX
  8
央铋_1
 62
    39
  6
CONTINUOUS
 10
0.805475
 20
0.754235
  0
VERTEX
  8
央铋_1
 62
    39
  6
CONTINUOUS
 10
0.749059
 20
0.758061
  0
VERTEX
  8
央铋_1
 62
    39
  6
CONTINUOUS
 10
0.695941
 20
0.762511
  0
VERTEX
  8
央铋_1
 62
    39
  6
CONTINUOUS
 10
0.646684
 20
0.767563
  0
VERTEX
  8
央铋_1
 62
    39
  6
CONTINUOUS
 10
0.601848
 20
0.773196
  0
VERTEX
  8
央铋_1
 62
    39
  6
CONTINUOUS
 10
0.561997
 20
0.779387
  0
VERTEX
  8
央铋_1
 62
    39
  6
CONTINUOUS
 10
0.527693
 20
0.786116
  0
VERTEX
  8
央铋_1
 62
    39
  6
CONTINUOUS
 10
0.499497
 20
0.793360
  0
VERTEX
  8
央铋_1
 62
    39
  6
CONTINUOUS
 10
0.477973
 20
0.801098
  0
VERTEX
  8
央铋_1
 62
    39
  6
CONTINUOUS
 10
0.463681
 20
0.809307
  0
VERTEX
  8
央铋_1
 62
    39
  6
CONTINUOUS
 10
0.427436
 20
0.852673
  0
VERTEX
  8
央铋_1
 62
    39
  6
CONTINUOUS
 10
0.401465
 20
0.910200
  0
VERTEX
  8
央铋_1
 62
    39
  6
CONTINUOUS
 10
0.384056
 20
0.974295
  0
VERTEX
  8
央铋_1
 62
    39
  6
CONTINUOUS
 10
0.373497
 20
1.037365
  0
VERTEX
  8
央铋_1
 62
    39
  6
CONTINUOUS
 10
0.368074
 20
1.091816
  0
VERTEX
  8
央铋_1
 62
    39
  6
CONTINUOUS
 10
0.366077
 20
1.130054
  0
SEQEND
  8
0
  0
POLYLINE
  8
央铋_1
 62
    39
  6
CONTINUOUS
 66
     1
 40
0.003000
 41
0.003000
 70
     1
  0
VERTEX
  8
央铋_1
 62
    39
  6
CONTINUOUS
 10
0.287441
 20
0.296669
  0
VERTEX
  8
央铋_1
 62
    39
  6
CONTINUOUS
 10
0.320087
 20
0.304610
  0
VERTEX
  8
央铋_1
 62
    39
  6
CONTINUOUS
 10
0.358848
 20
0.312237
  0
VERTEX
  8
央铋_1
 62
    39
  6
CONTINUOUS
 10
0.403040
 20
0.319484
  0
VERTEX
  8
央铋_1
 62
    39
  6
CONTINUOUS
 10
0.451978
 20
0.326285
  0
VERTEX
  8
央铋_1
 62
    39
  6
CONTINUOUS
 10
0.504979
 20
0.332573
  0
VERTEX
  8
央铋_1
 62
    39
  6
CONTINUOUS
 10
0.561359
 20
0.338282
  0
VERTEX
  8
央铋_1
 62
    39
  6
CONTINUOUS
 10
0.620432
 20
0.343345
  0
VERTEX
  8
央铋_1
 62
    39
  6
CONTINUOUS
 10
0.681516
 20
0.347696
  0
VERTEX
  8
央铋_1
 62
    39
  6
CONTINUOUS
 10
0.743925
 20
0.351268
  0
VERTEX
  8
央铋_1
 62
    39
  6
CONTINUOUS
 10
0.806976
 20
0.353996
  0
VERTEX
  8
央铋_1
 62
    39
  6
CONTINUOUS
 10
0.869985
 20
0.355813
  0
VERTEX
  8
央铋_1
 62
    39
  6
CONTINUOUS
 10
0.932267
 20
0.356652
  0
VERTEX
  8
央铋_1
 62
    39
  6
CONTINUOUS
 10
0.993139
 20
0.356447
  0
VERTEX
  8
央铋_1
 62
    39
  6
CONTINUOUS
 10
1.051915
 20
0.355132
  0
VERTEX
  8
央铋_1
 62
    39
  6
CONTINUOUS
 10
1.107913
 20
0.352640
  0
VERTEX
  8
央铋_1
 62
    39
  6
CONTINUOUS
 10
1.160447
 20
0.348905
  0
VERTEX
  8
央铋_1
 62
    39
  6
CONTINUOUS
 10
1.208834
 20
0.343860
  0
VERTEX
  8
央铋_1
 62
    39
  6
CONTINUOUS
 10
1.252390
 20
0.337439
  0
VERTEX
  8
央铋_1
 62
    39
  6
CONTINUOUS
 10
1.290430
 20
0.329576
  0
VERTEX
  8
央铋_1
 62
    39
  6
CONTINUOUS
 10
1.322270
 20
0.320205
  0
VERTEX
  8
央铋_1
 62
    39
  6
CONTINUOUS
 10
1.347226
 20
0.309258
  0
VERTEX
  8
央铋_1
 62
    39
  6
CONTINUOUS
 10
1.364614
 20
0.296669
  0
VERTEX
  8
央铋_1
 62
    39
  6
CONTINUOUS
 10
1.387219
 20
0.263349
  0
VERTEX
  8
央铋_1
 62
    39
  6
CONTINUOUS
 10
1.397120
 20
0.223986
  0
VERTEX
  8
央铋_1
 62
    39
  6
CONTINUOUS
 10
1.395728
 20
0.180832
  0
VERTEX
  8
央铋_1
 62
    39
  6
CONTINUOUS
 10
1.384456
 20
0.136134
  0
VERTEX
  8
央铋_1
 62
    39
  6
CONTINUOUS
 10
1.364715
 20
0.092141
  0
VERTEX
  8
央铋_1
 62
    39
  6
CONTINUOUS
 10
1.337916
 20
0.051104
  0
VERTEX
  8
央铋_1
 62
    39
  6
CONTINUOUS
 10
1.305471
 20
0.015271
  0
VERTEX
  8
央铋_1
 62
    39
  6
CONTINUOUS
 10
1.268791
 20
-0.013109
  0
VERTEX
  8
央铋_1
 62
    39
  6
CONTINUOUS
 10
1.229288
 20
-0.031786
  0
VERTEX
  8
央铋_1
 62
    39
  6
CONTINUOUS
 10
1.188374
 20
-0.038512
  0
VERTEX
  8
央铋_1
 62
    39
  6
CONTINUOUS
 10
1.161840
 20
-0.039542
  0
VERTEX
  8
央铋_1
 62
    39
  6
CONTINUOUS
 10
1.128495
 20
-0.042377
  0
VERTEX
  8
央铋_1
 62
    39
  6
CONTINUOUS
 10
1.089146
 20
-0.046632
  0
VERTEX
  8
央铋_1
 62
    39
  6
CONTINUOUS
 10
1.044598
 20
-0.051920
  0
VERTEX
  8
央铋_1
 62
    39
  6
CONTINUOUS
 10
0.995658
 20
-0.057856
  0
VERTEX
  8
央铋_1
 62
    39
  6
CONTINUOUS
 10
0.943132
 20
-0.064056
  0
VERTEX
  8
央铋_1
 62
    39
  6
CONTINUOUS
 10
0.887826
 20
-0.070134
  0
VERTEX
  8
央铋_1
 62
    39
  6
CONTINUOUS
 10
0.830546
 20
-0.075706
  0
VERTEX
  8
央铋_1
 62
    39
  6
CONTINUOUS
 10
0.772098
 20
-0.080384
  0
VERTEX
  8
央铋_1
 62
    39
  6
CONTINUOUS
 10
0.713288
 20
-0.083786
  0
VERTEX
  8
央铋_1
 62
    39
  6
CONTINUOUS
 10
0.654923
 20
-0.085524
  0
VERTEX
  8
央铋_1
 62
    39
  6
CONTINUOUS
 10
0.597807
 20
-0.085214
  0
VERTEX
  8
央铋_1
 62
    39
  6
CONTINUOUS
 10
0.542749
 20
-0.082471
  0
VERTEX
  8
央铋_1
 62
    39
  6
CONTINUOUS
 10
0.490553
 20
-0.076909
  0
VERTEX
  8
央铋_1
 62
    39
  6
CONTINUOUS
 10
0.442025
 20
-0.068144
  0
VERTEX
  8
央铋_1
 62
    39
  6
CONTINUOUS
 10
0.397972
 20
-0.055789
  0
VERTEX
  8
央铋_1
 62
    39
  6
CONTINUOUS
 10
0.359201
 20
-0.039460
  0
VERTEX
  8
央铋_1
 62
    39
  6
CONTINUOUS
 10
0.326516
 20
-0.018772
  0
VERTEX
  8
央铋_1
 62
    39
  6
CONTINUOUS
 10
0.274237
 20
0.034398
  0
VERTEX
  8
央铋_1
 62
    39
  6
CONTINUOUS
 10
0.246059
 20
0.088726
  0
VERTEX
  8
央铋_1
 62
    39
  6
CONTINUOUS
 10
0.236703
 20
0.141672
  0
VERTEX
  8
央铋_1
 62
    39
  6
CONTINUOUS
 10
0.240888
 20
0.190691
  0
VERTEX
  8
央铋_1
 62
    39
  6
CONTINUOUS
 10
0.253335
 20
0.233243
  0
VERTEX
  8
央铋_1
 62
    39
  6
CONTINUOUS
 10
0.268763
 20
0.266785
  0
VERTEX
  8
央铋_1
 62
    39
  6
CONTINUOUS
 10
0.281891
 20
0.288775
  0
SEQEND
  8
0
  0
POLYLINE
  8
央铋_1
 62
    39
  6
CONTINUOUS
 66
     1
 40
0.003000
 41
0.003000
 70
     1
  0
VERTEX
  8
央铋_1
 62
    39
  6
CONTINUOUS
 10
-0.437457
 20
0.296669
  0
VERTEX
  8
央铋_1
 62
    39
  6
CONTINUOUS
 10
-0.459261
 20
0.309707
  0
VERTEX
  8
央铋_1
 62
    39
  6
CONTINUOUS
 10
-0.488107
 20
0.321563
  0
VERTEX
  8
央铋_1
 62
    39
  6
CONTINUOUS
 10
-0.523386
 20
0.332276
  0
VERTEX
  8
央铋_1
 62
    39
  6
CONTINUOUS
 10
-0.564488
 20
0.341886
  0
VERTEX
  8
央铋_1
 62
    39
  6
CONTINUOUS
 10
-0.610806
 20
0.350435
  0
VERTEX
  8
央铋_1
 62
    39
  6
CONTINUOUS
 10
-0.661731
 20
0.357962
  0
VERTEX
  8
央铋_1
 62
    39
  6
CONTINUOUS
 10
-0.716655
 20
0.364508
  0
VERTEX
  8
央铋_1
 62
    39
  6
CONTINUOUS
 10
-0.774969
 20
0.370112
  0
VERTEX
  8
央铋_1
 62
    39
  6
CONTINUOUS
 10
-0.836064
 20
0.374816
  0
VERTEX
  8
央铋_1
 62
    39
  6
CONTINUOUS
 10
-0.899333
 20
0.378658
  0
VERTEX
  8
央铋_1
 62
    39
  6
CONTINUOUS
 10
-0.964165
 20
0.381680
  0
VERTEX
  8
央铋_1
 62
    39
  6
CONTINUOUS
 10
-1.029954
 20
0.383922
  0
VERTEX
  8
央铋_1
 62
    39
  6
CONTINUOUS
 10
-1.096091
 20
0.385423
  0
VERTEX
  8
央铋_1
 62
    39
  6
CONTINUOUS
 10
-1.161966
 20
0.386225
  0
VERTEX
  8
央铋_1
 62
    39
  6
CONTINUOUS
 10
-1.226972
 20
0.386367
  0
VERTEX
  8
央铋_1
 62
    39
  6
CONTINUOUS
 10
-1.290499
 20
0.385889
  0
VERTEX
  8
央铋_1
 62
    39
  6
CONTINUOUS
 10
-1.351940
 20
0.384832
  0
VERTEX
  8
央铋_1
 62
    39
  6
CONTINUOUS
 10
-1.410686
 20
0.383236
  0
VERTEX
  8
央铋_1
 62
    39
  6
CONTINUOUS
 10
-1.466129
 20
0.381141
  0
VERTEX
  8
央铋_1
 62
    39
  6
CONTINUOUS
 10
-1.517659
 20
0.378588
  0
VERTEX
  8
央铋_1
 62
    39
  6
CONTINUOUS
 10
-1.564669
 20
0.375616
  0
VERTEX
  8
央铋_1
 62
    39
  6
CONTINUOUS
 10
-1.606549
 20
0.372266
  0
VERTEX
  8
央铋_1
 62
    39
  6
CONTINUOUS
 10
-1.642692
 20
0.368578
  0
VERTEX
  8
央铋_1
 62
    39
  6
CONTINUOUS
 10
-1.672489
 20
0.364593
  0
VERTEX
  8
央铋_1
 62
    39
  6
CONTINUOUS
 10
-1.695331
 20
0.360350
  0
VERTEX
  8
央铋_1
 62
    39
  6
CONTINUOUS
 10
-1.710610
 20
0.355890
  0
VERTEX
  8
央铋_1
 62
    39
  6
CONTINUOUS
 10
-1.710610
 20
0.355890
  0
VERTEX
  8
央铋_1
 62
    39
  6
CONTINUOUS
 10
-1.744285
 20
0.337274
  0
VERTEX
  8
央铋_1
 62
    39
  6
CONTINUOUS
 10
-1.778438
 20
0.309258
  0
VERTEX
  8
央铋_1
 62
    39
  6
CONTINUOUS
 10
-1.810655
 20
0.274110
  0
VERTEX
  8
央铋_1
 62
    39
  6
CONTINUOUS
 10
-1.838520
 20
0.234097
  0
VERTEX
  8
央铋_1
 62
    39
  6
CONTINUOUS
 10
-1.859618
 20
0.191489
  0
VERTEX
  8
央铋_1
 62
    39
  6
CONTINUOUS
 10
-1.871534
 20
0.148552
  0
VERTEX
  8
央铋_1
 62
    39
  6
CONTINUOUS
 10
-1.871852
 20
0.107554
  0
VERTEX
  8
央铋_1
 62
    39
  6
CONTINUOUS
 10
-1.858158
 20
0.070764
  0
VERTEX
  8
央铋_1
 62
    39
  6
CONTINUOUS
 10
-1.828035
 20
0.040449
  0
VERTEX
  8
央铋_1
 62
    39
  6
CONTINUOUS
 10
-1.828035
 20
0.040449
  0
VERTEX
  8
央铋_1
 62
    39
  6
CONTINUOUS
 10
-1.810755
 20
0.031602
  0
VERTEX
  8
央铋_1
 62
    39
  6
CONTINUOUS
 10
-1.786387
 20
0.023287
  0
VERTEX
  8
央铋_1
 62
    39
  6
CONTINUOUS
 10
-1.755492
 20
0.015512
  0
VERTEX
  8
央铋_1
 62
    39
  6
CONTINUOUS
 10
-1.718633
 20
0.008282
  0
VERTEX
  8
央铋_1
 62
    39
  6
CONTINUOUS
 10
-1.676370
 20
0.001605
  0
VERTEX
  8
央铋_1
 62
    39
  6
CONTINUOUS
 10
-1.629266
 20
-0.004512
  0
VERTEX
  8
央铋_1
 62
    39
  6
CONTINUOUS
 10
-1.577882
 20
-0.010064
  0
VERTEX
  8
央铋_1
 62
    39
  6
CONTINUOUS
 10
-1.522779
 20
-0.015043
  0
VERTEX
  8
央铋_1
 62
    39
  6
CONTINUOUS
 10
-1.464520
 20
-0.019442
  0
VERTEX
  8
央铋_1
 62
    39
  6
CONTINUOUS
 10
-1.403666
 20
-0.023255
  0
VERTEX
  8
央铋_1
 62
    39
  6
CONTINUOUS
 10
-1.340778
 20
-0.026475
  0
VERTEX
  8
央铋_1
 62
    39
  6
CONTINUOUS
 10
-1.276419
 20
-0.029095
  0
VERTEX
  8
央铋_1
 62
    39
  6
CONTINUOUS
 10
-1.211149
 20
-0.031109
  0
VERTEX
  8
央铋_1
 62
    39
  6
CONTINUOUS
 10
-1.145531
 20
-0.032510
  0
VERTEX
  8
央铋_1
 62
    39
  6
CONTINUOUS
 10
-1.080125
 20
-0.033290
  0
VERTEX
  8
央铋_1
 62
    39
  6
CONTINUOUS
 10
-1.015495
 20
-0.033444
  0
VERTEX
  8
央铋_1
 62
    39
  6
CONTINUOUS
 10
-0.952200
 20
-0.032965
  0
VERTEX
  8
央铋_1
 62
    39
  6
CONTINUOUS
 10
-0.890803
 20
-0.031845
  0
VERTEX
  8
央铋_1
 62
    39
  6
CONTINUOUS
 10
-0.831866
 20
-0.030078
  0
VERTEX
  8
央铋_1
 62
    39
  6
CONTINUOUS
 10
-0.775950
 20
-0.027658
  0
VERTEX
  8
央铋_1
 62
    39
  6
CONTINUOUS
 10
-0.723617
 20
-0.024577
  0
VERTEX
  8
央铋_1
 62
    39
  6
CONTINUOUS
 10
-0.675427
 20
-0.020829
  0
VERTEX
  8
央铋_1
 62
    39
  6
CONTINUOUS
 10
-0.631944
 20
-0.016407
  0
VERTEX
  8
央铋_1
 62
    39
  6
CONTINUOUS
 10
-0.593729
 20
-0.011305
  0
VERTEX
  8
央铋_1
 62
    39
  6
CONTINUOUS
 10
-0.561342
 20
-0.005515
  0
VERTEX
  8
央铋_1
 62
    39
  6
CONTINUOUS
 10
-0.535346
 20
0.000969
  0
VERTEX
  8
央铋_1
 62
    39
  6
CONTINUOUS
 10
-0.535346
 20
0.000969
  0
VERTEX
  8
央铋_1
 62
    39
  6
CONTINUOUS
 10
-0.474872
 20
0.030677
  0
VERTEX
  8
央铋_1
 62
    39
  6
CONTINUOUS
 10
-0.437372
 20
0.072155
  0
VERTEX
  8
央铋_1
 62
    39
  6
CONTINUOUS
 10
-0.418249
 20
0.120555
  0
VERTEX
  8
央铋_1
 62
    39
  6
CONTINUOUS
 10
-0.412909
 20
0.171027
  0
VERTEX
  8
央铋_1
 62
    39
  6
CONTINUOUS
 10
-0.416755
 20
0.218722
  0
VERTEX
  8
央铋_1
 62
    39
  6
CONTINUOUS
 10
-0.425192
 20
0.258794
  0
VERTEX
  8
央铋_1
 62
    39
  6
CONTINUOUS
 10
-0.433625
 20
0.286392
  0
SEQEND
  8
0
  0
POLYLINE
  8
央铋_1
 62
    39
  6
CONTINUOUS
 66
     1
 40
0.003000
 41
0.003000
 70
     1
  0
VERTEX
  8
央铋_1
 62
    39
  6
CONTINUOUS
 10
-0.378646
 20
1.144488
  0
VERTEX
  8
央铋_1
 62
    39
  6
CONTINUOUS
 10
-0.399516
 20
1.152836
  0
VERTEX
  8
央铋_1
 62
    39
  6
CONTINUOUS
 10
-0.426955
 20
1.160387
  0
VERTEX
  8
央铋_1
 62
    39
  6
CONTINUOUS
 10
-0.460436
 20
1.167153
  0
VERTEX
  8
央铋_1
 62
    39
  6
CONTINUOUS
 10
-0.499434
 20
1.173145
  0
VERTEX
  8
央铋_1
 62
    39
  6
CONTINUOUS
 10
-0.543424
 20
1.178376
  0
VERTEX
  8
央铋_1
 62
    39
  6
CONTINUOUS
 10
-0.591880
 20
1.182857
  0
VERTEX
  8
央铋_1
 62
    39
  6
CONTINUOUS
 10
-0.644277
 20
1.186600
  0
VERTEX
  8
央铋_1
 62
    39
  6
CONTINUOUS
 10
-0.700090
 20
1.189617
  0
VERTEX
  8
央铋_1
 62
    39
  6
CONTINUOUS
 10
-0.758792
 20
1.191920
  0
VERTEX
  8
央铋_1
 62
    39
  6
CONTINUOUS
 10
-0.819859
 20
1.193520
  0
VERTEX
  8
央铋_1
 62
    39
  6
CONTINUOUS
 10
-0.882765
 20
1.194430
  0
VERTEX
  8
央铋_1
 62
    39
  6
CONTINUOUS
 10
-0.946985
 20
1.194661
  0
VERTEX
  8
央铋_1
 62
    39
  6
CONTINUOUS
 10
-1.011993
 20
1.194226
  0
VERTEX
  8
央铋_1
 62
    39
  6
CONTINUOUS
 10
-1.077263
 20
1.193135
  0
VERTEX
  8
央铋_1
 62
    39
  6
CONTINUOUS
 10
-1.142271
 20
1.191402
  0
VERTEX
  8
央铋_1
 62
    39
  6
CONTINUOUS
 10
-1.206491
 20
1.189037
  0
VERTEX
  8
央铋_1
 62
    39
  6
CONTINUOUS
 10
-1.269397
 20
1.186053
  0
VERTEX
  8
央铋_1
 62
    39
  6
CONTINUOUS
 10
-1.330464
 20
1.182461
  0
VERTEX
  8
央铋_1
 62
    39
  6
CONTINUOUS
 10
-1.389166
 20
1.178273
  0
VERTEX
  8
央铋_1
 62
    39
  6
CONTINUOUS
 10
-1.444979
 20
1.173502
  0
VERTEX
  8
央铋_1
 62
    39
  6
CONTINUOUS
 10
-1.497376
 20
1.168158
  0
VERTEX
  8
央铋_1
 62
    39
  6
CONTINUOUS
 10
-1.545832
 20
1.162255
  0
VERTEX
  8
央铋_1
 62
    39
  6
CONTINUOUS
 10
-1.589822
 20
1.155802
  0
VERTEX
  8
央铋_1
 62
    39
  6
CONTINUOUS
 10
-1.628820
 20
1.148814
  0
VERTEX
  8
央铋_1
 62
    39
  6
CONTINUOUS
 10
-1.662301
 20
1.141301
  0
VERTEX
  8
央铋_1
 62
    39
  6
CONTINUOUS
 10
-1.689740
 20
1.133275
  0
VERTEX
  8
央铋_1
 62
    39
  6
CONTINUOUS
 10
-1.710610
 20
1.124748
  0
VERTEX
  8
央铋_1
 62
    39
  6
CONTINUOUS
 10
-1.710610
 20
1.124748
  0
VERTEX
  8
央铋_1
 62
    39
  6
CONTINUOUS
 10
-1.753757
 20
1.093810
  0
VERTEX
  8
央铋_1
 62
    39
  6
CONTINUOUS
 10
-1.780129
 20
1.055585
  0
VERTEX
  8
央铋_1
 62
    39
  6
CONTINUOUS
 10
-1.791825
 20
1.012990
  0
VERTEX
  8
央铋_1
 62
    39
  6
CONTINUOUS
 10
-1.790944
 20
0.968942
  0
VERTEX
  8
央铋_1
 62
    39
  6
CONTINUOUS
 10
-1.779584
 20
0.926361
  0
VERTEX
  8
央铋_1
 62
    39
  6
CONTINUOUS
 10
-1.759844
 20
0.888163
  0
VERTEX
  8
央铋_1
 62
    39
  6
CONTINUOUS
 10
-1.733824
 20
0.857266
  0
VERTEX
  8
央铋_1
 62
    39
  6
CONTINUOUS
 10
-1.703621
 20
0.836588
  0
VERTEX
  8
央铋_1
 62
    39
  6
CONTINUOUS
 10
-1.671335
 20
0.829047
  0
VERTEX
  8
央铋_1
 62
    39
  6
CONTINUOUS
 10
-1.654926
 20
0.828554
  0
VERTEX
  8
央铋_1
 62
    39
  6
CONTINUOUS
 10
-1.630628
 20
0.827155
  0
VERTEX
  8
央铋_1
 62
    39
  6
CONTINUOUS
 10
-1.599119
 20
0.824969
  0
VERTEX
  8
央铋_1
 62
    39
  6
CONTINUOUS
 10
-1.561080
 20
0.822116
  0
VERTEX
  8
央铋_1
 62
    39
  6
CONTINUOUS
 10
-1.517191
 20
0.818716
  0
VERTEX
  8
央铋_1
 62
    39
  6
CONTINUOUS
 10
-1.468133
 20
0.814888
  0
VERTEX
  8
央铋_1
 62
    39
  6
CONTINUOUS
 10
-1.414586
 20
0.810752
  0
VERTEX
  8
央铋_1
 62
    39
  6
CONTINUOUS
 10
-1.357229
 20
0.806428
  0
VERTEX
  8
央铋_1
 62
    39
  6
CONTINUOUS
 10
-1.296743
 20
0.802036
  0
VERTEX
  8
央铋_1
 62
    39
  6
CONTINUOUS
 10
-1.233809
 20
0.797694
  0
VERTEX
  8
央铋_1
 62
    39
  6
CONTINUOUS
 10
-1.169106
 20
0.793524
  0
VERTEX
  8
央铋_1
 62
    39
  6
CONTINUOUS
 10
-1.103314
 20
0.789644
  0
VERTEX
  8
央铋_1
 62
    39
  6
CONTINUOUS
 10
-1.037115
 20
0.786174
  0
VERTEX
  8
央铋_1
 62
    39
  6
CONTINUOUS
 10
-0.971188
 20
0.783234
  0
VERTEX
  8
央铋_1
 62
    39
  6
CONTINUOUS
 10
-0.906213
 20
0.780943
  0
VERTEX
  8
央铋_1
 62
    39
  6
CONTINUOUS
 10
-0.842871
 20
0.779422
  0
VERTEX
  8
央铋_1
 62
    39
  6
CONTINUOUS
 10
-0.781842
 20
0.778790
  0
VERTEX
  8
央铋_1
 62
    39
  6
CONTINUOUS
 10
-0.723805
 20
0.779166
  0
VERTEX
  8
央铋_1
 62
    39
  6
CONTINUOUS
 10
-0.669442
 20
0.780671
  0
VERTEX
  8
央铋_1
 62
    39
  6
CONTINUOUS
 10
-0.619432
 20
0.783424
  0
VERTEX
  8
央铋_1
 62
    39
  6
CONTINUOUS
 10
-0.574456
 20
0.787544
  0
VERTEX
  8
央铋_1
 62
    39
  6
CONTINUOUS
 10
-0.535194
 20
0.793151
  0
VERTEX
  8
央铋_1
 62
    39
  6
CONTINUOUS
 10
-0.502325
 20
0.800366
  0
VERTEX
  8
央铋_1
 62
    39
  6
CONTINUOUS
 10
-0.476531
 20
0.809307
  0
VERTEX
  8
央铋_1
 62
    39
  6
CONTINUOUS
 10
-0.421725
 20
0.846322
  0
VERTEX
  8
央铋_1
 62
    39
  6
CONTINUOUS
 10
-0.386886
 20
0.894906
  0
VERTEX
  8
央铋_1
 62
    39
  6
CONTINUOUS
 10
-0.368111
 20
0.949972
  0
VERTEX
  8
央铋_1
 62
    39
  6
CONTINUOUS
 10
-0.361499
 20
1.006433
  0
VERTEX
  8
央铋_1
 62
    39
  6
CONTINUOUS
 10
-0.363148
 20
1.059202
  0
VERTEX
  8
央铋_1
 62
    39
  6
CONTINUOUS
 10
-0.369157
 20
1.103192
  0
VERTEX
  8
央铋_1
 62
    39
  6
CONTINUOUS
 10
-0.375623
 20
1.133316
  0
SEQEND
  8
0
  0
POLYLINE
  8
央铋_1
 62
    39
  6
CONTINUOUS
 66
     1
 40
0.003000
 41
0.003000
 70
     1
  0
VERTEX
  8
央铋_1
 62
    39
  6
CONTINUOUS
 10
-1.710610
 20
1.913343
  0
VERTEX
  8
央铋_1
 62
    39
  6
CONTINUOUS
 10
-1.686760
 20
1.925487
  0
VERTEX
  8
央铋_1
 62
    39
  6
CONTINUOUS
 10
-1.657488
 20
1.936599
  0
VERTEX
  8
央铋_1
 62
    39
  6
CONTINUOUS
 10
-1.623216
 20
1.946700
  0
VERTEX
  8
央铋_1
 62
    39
  6
CONTINUOUS
 10
-1.584368
 20
1.955810
  0
VERTEX
  8
央铋_1
 62
    39
  6
CONTINUOUS
 10
-1.541367
 20
1.963952
  0
VERTEX
  8
央铋_1
 62
    39
  6
CONTINUOUS
 10
-1.494635
 20
1.971146
  0
VERTEX
  8
央铋_1
 62
    39
  6
CONTINUOUS
 10
-1.444595
 20
1.977414
  0
VERTEX
  8
央铋_1
 62
    39
  6
CONTINUOUS
 10
-1.391670
 20
1.982778
  0
VERTEX
  8
央铋_1
 62
    39
  6
CONTINUOUS
 10
-1.336284
 20
1.987258
  0
VERTEX
  8
央铋_1
 62
    39
  6
CONTINUOUS
 10
-1.278858
 20
1.990877
  0
VERTEX
  8
央铋_1
 62
    39
  6
CONTINUOUS
 10
-1.219816
 20
1.993656
  0
VERTEX
  8
央铋_1
 62
    39
  6
CONTINUOUS
 10
-1.159581
 20
1.995616
  0
VERTEX
  8
央铋_1
 62
    39
  6
CONTINUOUS
 10
-1.098576
 20
1.996778
  0
VERTEX
  8
央铋_1
 62
    39
  6
CONTINUOUS
 10
-1.037224
 20
1.997164
  0
VERTEX
  8
央铋_1
 62
    39
  6
CONTINUOUS
 10
-0.975947
 20
1.996796
  0
VERTEX
  8
央铋_1
 62
    39
  6
CONTINUOUS
 10
-0.915169
 20
1.995695
  0
VERTEX
  8
央铋_1
 62
    39
  6
CONTINUOUS
 10
-0.855312
 20
1.993881
  0
VERTEX
  8
央铋_1
 62
    39
  6
CONTINUOUS
 10
-0.796799
 20
1.991378
  0
VERTEX
  8
央铋_1
 62
    39
  6
CONTINUOUS
 10
-0.740053
 20
1.988205
  0
VERTEX
  8
央铋_1
 62
    39
  6
CONTINUOUS
 10
-0.685498
 20
1.984385
  0
VERTEX
  8
央铋_1
 62
    39
  6
CONTINUOUS
 10
-0.633555
 20
1.979939
  0
VERTEX
  8
央铋_1
 62
    39
  6
CONTINUOUS
 10
-0.584648
 20
1.974888
  0
VERTEX
  8
央铋_1
 62
    39
  6
CONTINUOUS
 10
-0.539201
 20
1.969254
  0
VERTEX
  8
央铋_1
 62
    39
  6
CONTINUOUS
 10
-0.497635
 20
1.963058
  0
VERTEX
  8
央铋_1
 62
    39
  6
CONTINUOUS
 10
-0.460373
 20
1.956321
  0
VERTEX
  8
央铋_1
 62
    39
  6
CONTINUOUS
 10
-0.427839
 20
1.949065
  0
VERTEX
  8
央铋_1
 62
    39
  6
CONTINUOUS
 10
-0.400456
 20
1.941312
  0
VERTEX
  8
央铋_1
 62
    39
  6
CONTINUOUS
 10
-0.378646
 20
1.933083
  0
VERTEX
  8
央铋_1
 62
    39
  6
CONTINUOUS
 10
-0.330881
 20
1.900792
  0
VERTEX
  8
央铋_1
 62
    39
  6
CONTINUOUS
 10
-0.302612
 20
1.858939
  0
VERTEX
  8
央铋_1
 62
    39
  6
CONTINUOUS
 10
-0.290133
 20
1.811091
  0
VERTEX
  8
央铋_1
 62
    39
  6
CONTINUOUS
 10
-0.289739
 20
1.760816
  0
VERTEX
  8
央铋_1
 62
    39
  6
CONTINUOUS
 10
-0.297725
 20
1.711682
  0
VERTEX
  8
央铋_1
 62
    39
  6
CONTINUOUS
 10
-0.310385
 20
1.667256
  0
VERTEX
  8
央铋_1
 62
    39
  6
CONTINUOUS
 10
-0.324016
 20
1.631107
  0
VERTEX
  8
央铋_1
 62
    39
  6
CONTINUOUS
 10
-0.334911
 20
1.606800
  0
VERTEX
  8
央铋_1
 62
    39
  6
CONTINUOUS
 10
-0.339366
 20
1.597906
  0
VERTEX
  8
央铋_1
 62
    39
  6
CONTINUOUS
 10
-0.343982
 20
1.597395
  0
VERTEX
  8
央铋_1
 62
    39
  6
CONTINUOUS
 10
-0.357406
 20
1.595937
  0
VERTEX
  8
央铋_1
 62
    39
  6
CONTINUOUS
 10
-0.378999
 20
1.593638
  0
VERTEX
  8
央铋_1
 62
    39
  6
CONTINUOUS
 10
-0.408126
 20
1.590607
  0
VERTEX
  8
央铋_1
 62
    39
  6
CONTINUOUS
 10
-0.444149
 20
1.586951
  0
VERTEX
  8
央铋_1
 62
    39
  6
CONTINUOUS
 10
-0.486431
 20
1.582777
  0
VERTEX
  8
央铋_1
 62
    39
  6
CONTINUOUS
 10
-0.534334
 20
1.578194
  0
VERTEX
  8
央铋_1
 62
    39
  6
CONTINUOUS
 10
-0.587222
 20
1.573309
  0
VERTEX
  8
央铋_1
 62
    39
  6
CONTINUOUS
 10
-0.644458
 20
1.568230
  0
VERTEX
  8
央铋_1
 62
    39
  6
CONTINUOUS
 10
-0.705404
 20
1.563064
  0
VERTEX
  8
央铋_1
 62
    39
  6
CONTINUOUS
 10
-0.769424
 20
1.557921
  0
VERTEX
  8
央铋_1
 62
    39
  6
CONTINUOUS
 10
-0.835880
 20
1.552906
  0
VERTEX
  8
央铋_1
 62
    39
  6
CONTINUOUS
 10
-0.904134
 20
1.548128
  0
VERTEX
  8
央铋_1
 62
    39
  6
CONTINUOUS
 10
-0.973551
 20
1.543695
  0
VERTEX
  8
央铋_1
 62
    39
  6
CONTINUOUS
 10
-1.043493
 20
1.539715
  0
VERTEX
  8
央铋_1
 62
    39
  6
CONTINUOUS
 10
-1.113322
 20
1.536295
  0
VERTEX
  8
央铋_1
 62
    39
  6
CONTINUOUS
 10
-1.182402
 20
1.533542
  0
VERTEX
  8
央铋_1
 62
    39
  6
CONTINUOUS
 10
-1.250096
 20
1.531566
  0
VERTEX
  8
央铋_1
 62
    39
  6
CONTINUOUS
 10
-1.315766
 20
1.530472
  0
VERTEX
  8
央铋_1
 62
    39
  6
CONTINUOUS
 10
-1.378775
 20
1.530370
  0
VERTEX
  8
央铋_1
 62
    39
  6
CONTINUOUS
 10
-1.438487
 20
1.531367
  0
VERTEX
  8
央铋_1
 62
    39
  6
CONTINUOUS
 10
-1.494263
 20
1.533571
  0
VERTEX
  8
央铋_1
 62
    39
  6
CONTINUOUS
 10
-1.545468
 20
1.537089
  0
VERTEX
  8
央铋_1
 62
    39
  6
CONTINUOUS
 10
-1.591463
 20
1.542029
  0
VERTEX
  8
央铋_1
 62
    39
  6
CONTINUOUS
 10
-1.631612
 20
1.548499
  0
VERTEX
  8
央铋_1
 62
    39
  6
CONTINUOUS
 10
-1.665278
 20
1.556606
  0
VERTEX
  8
央铋_1
 62
    39
  6
CONTINUOUS
 10
-1.691823
 20
1.566459
  0
VERTEX
  8
央铋_1
 62
    39
  6
CONTINUOUS
 10
-1.710610
 20
1.578165
  0
VERTEX
  8
央铋_1
 62
    39
  6
CONTINUOUS
 10
-1.749992
 20
1.626515
  0
VERTEX
  8
央铋_1
 62
    39
  6
CONTINUOUS
 10
-1.768477
 20
1.680419
  0
VERTEX
  8
央铋_1
 62
    39
  6
CONTINUOUS
 10
-1.770888
 20
1.736179
  0
VERTEX
  8
央铋_1
 62
    39
  6
CONTINUOUS
 10
-1.762047
 20
1.790094
  0
VERTEX
  8
央铋_1
 62
    39
  6
CONTINUOUS
 10
-1.746777
 20
1.838467
  0
VERTEX
  8
央铋_1
 62
    39
  6
CONTINUOUS
 10
-1.729899
 20
1.877599
  0
VERTEX
  8
央铋_1
 62
    39
  6
CONTINUOUS
 10
-1.716236
 20
1.903790
  0
SEQEND
  8
0
  0
POLYLINE
  8
央铋_1
 62
    39
  6
CONTINUOUS
 66
     1
 40
0.003000
 41
0.003000
 70
     1
  0
VERTEX
  8
央铋_1
 62
    39
  6
CONTINUOUS
 10
-0.359106
 20
-0.511669
  0
VERTEX
  8
央铋_1
 62
    39
  6
CONTINUOUS
 10
-0.359792
 20
-0.521032
  0
VERTEX
  8
央铋_1
 62
    39
  6
CONTINUOUS
 10
-0.361351
 20
-0.547160
  0
VERTEX
  8
央铋_1
 62
    39
  6
CONTINUOUS
 10
-0.363040
 20
-0.587111
  0
VERTEX
  8
央铋_1
 62
    39
  6
CONTINUOUS
 10
-0.364111
 20
-0.637943
  0
VERTEX
  8
央铋_1
 62
    39
  6
CONTINUOUS
 10
-0.363820
 20
-0.696715
  0
VERTEX
  8
央铋_1
 62
    39
  6
CONTINUOUS
 10
-0.361421
 20
-0.760485
  0
VERTEX
  8
央铋_1
 62
    39
  6
CONTINUOUS
 10
-0.356169
 20
-0.826311
  0
VERTEX
  8
央铋_1
 62
    39
  6
CONTINUOUS
 10
-0.347318
 20
-0.891252
  0
VERTEX
  8
央铋_1
 62
    39
  6
CONTINUOUS
 10
-0.334123
 20
-0.952366
  0
VERTEX
  8
央铋_1
 62
    39
  6
CONTINUOUS
 10
-0.315837
 20
-1.006711
  0
VERTEX
  8
央铋_1
 62
    39
  6
CONTINUOUS
 10
-0.291717
 20
-1.051345
  0
VERTEX
  8
央铋_1
 62
    39
  6
CONTINUOUS
 10
-0.261016
 20
-1.083327
  0
VERTEX
  8
央铋_1
 62
    39
  6
CONTINUOUS
 10
-0.229145
 20
-1.109612
  0
VERTEX
  8
央铋_1
 62
    39
  6
CONTINUOUS
 10
-0.192944
 20
-1.144989
  0
VERTEX
  8
央铋_1
 62
    39
  6
CONTINUOUS
 10
-0.153483
 20
-1.187690
  0
VERTEX
  8
央铋_1
 62
    39
  6
CONTINUOUS
 10
-0.111835
 20
-1.235949
  0
VERTEX
  8
央铋_1
 62
    39
  6
CONTINUOUS
 10
-0.069070
 20
-1.287998
  0
VERTEX
  8
央铋_1
 62
    39
  6
CONTINUOUS
 10
-0.026258
 20
-1.342071
  0
VERTEX
  8
央铋_1
 62
    39
  6
CONTINUOUS
 10
0.015528
 20
-1.396401
  0
VERTEX
  8
央铋_1
 62
    39
  6
CONTINUOUS
 10
0.055217
 20
-1.449219
  0
VERTEX
  8
央铋_1
 62
    39
  6
CONTINUOUS
 10
0.091739
 20
-1.498760
  0
VERTEX
  8
央铋_1
 62
    39
  6
CONTINUOUS
 10
0.124023
 20
-1.543256
  0
VERTEX
  8
央铋_1
 62
    39
  6
CONTINUOUS
 10
0.150997
 20
-1.580940
  0
VERTEX
  8
央铋_1
 62
    39
  6
CONTINUOUS
 10
0.171590
 20
-1.610044
  0
VERTEX
  8
央铋_1
 62
    39
  6
CONTINUOUS
 10
0.184732
 20
-1.628803
  0
VERTEX
  8
央铋_1
 62
    39
  6
CONTINUOUS
 10
0.189350
 20
-1.635449
  0
VERTEX
  8
央铋_1
 62
    39
  6
CONTINUOUS
 10
0.196286
 20
-1.644885
  0
VERTEX
  8
央铋_1
 62
    39
  6
CONTINUOUS
 10
0.215803
 20
-1.670058
  0
VERTEX
  8
央铋_1
 62
    39
  6
CONTINUOUS
 10
0.245964
 20
-1.706262
  0
VERTEX
  8
央铋_1
 62
    39
  6
CONTINUOUS
 10
0.284833
 20
-1.748792
  0
VERTEX
  8
央铋_1
 62
    39
  6
CONTINUOUS
 10
0.330474
 20
-1.792944
  0
VERTEX
  8
央铋_1
 62
    39
  6
CONTINUOUS
 10
0.380951
 20
-1.834012
  0
VERTEX
  8
央铋_1
 62
    39
  6
CONTINUOUS
 10
0.434327
 20
-1.867292
  0
VERTEX
  8
央铋_1
 62
    39
  6
CONTINUOUS
 10
0.488666
 20
-1.888078
  0
VERTEX
  8
央铋_1
 62
    39
  6
CONTINUOUS
 10
0.542031
 20
-1.891665
  0
VERTEX
  8
央铋_1
 62
    39
  6
CONTINUOUS
 10
0.542031
 20
-1.891665
  0
VERTEX
  8
央铋_1
 62
    39
  6
CONTINUOUS
 10
0.589432
 20
-1.883913
  0
VERTEX
  8
央铋_1
 62
    39
  6
CONTINUOUS
 10
0.636830
 20
-1.872264
  0
VERTEX
  8
央铋_1
 62
    39
  6
CONTINUOUS
 10
0.683052
 20
-1.856360
  0
VERTEX
  8
央铋_1
 62
    39
  6
CONTINUOUS
 10
0.726921
 20
-1.835845
  0
VERTEX
  8
央铋_1
 62
    39
  6
CONTINUOUS
 10
0.767265
 20
-1.810363
  0
VERTEX
  8
央铋_1
 62
    39
  6
CONTINUOUS
 10
0.802907
 20
-1.779557
  0
VERTEX
  8
央铋_1
 62
    39
  6
CONTINUOUS
 10
0.832674
 20
-1.743071
  0
VERTEX
  8
央铋_1
 62
    39
  6
CONTINUOUS
 10
0.855390
 20
-1.700547
  0
VERTEX
  8
央铋_1
 62
    39
  6
CONTINUOUS
 10
0.869881
 20
-1.651631
  0
VERTEX
  8
央铋_1
 62
    39
  6
CONTINUOUS
 10
0.874972
 20
-1.595965
  0
VERTEX
  8
央铋_1
 62
    39
  6
CONTINUOUS
 10
0.874972
 20
-1.595965
  0
VERTEX
  8
央铋_1
 62
    39
  6
CONTINUOUS
 10
0.872948
 20
-1.546692
  0
VERTEX
  8
央铋_1
 62
    39
  6
CONTINUOUS
 10
0.866920
 20
-1.497564
  0
VERTEX
  8
央铋_1
 62
    39
  6
CONTINUOUS
 10
0.856952
 20
-1.448715
  0
VERTEX
  8
央铋_1
 62
    39
  6
CONTINUOUS
 10
0.843112
 20
-1.400281
  0
VERTEX
  8
央铋_1
 62
    39
  6
CONTINUOUS
 10
0.825464
 20
-1.352398
  0
VERTEX
  8
央铋_1
 62
    39
  6
CONTINUOUS
 10
0.804075
 20
-1.305203
  0
VERTEX
  8
央铋_1
 62
    39
  6
CONTINUOUS
 10
0.779010
 20
-1.258830
  0
VERTEX
  8
央铋_1
 62
    39
  6
CONTINUOUS
 10
0.750334
 20
-1.213415
  0
VERTEX
  8
央铋_1
 62
    39
  6
CONTINUOUS
 10
0.718115
 20
-1.169094
  0
VERTEX
  8
央铋_1
 62
    39
  6
CONTINUOUS
 10
0.682416
 20
-1.126002
  0
VERTEX
  8
央铋_1
 62
    39
  6
CONTINUOUS
 10
0.643305
 20
-1.084276
  0
VERTEX
  8
央铋_1
 62
    39
  6
CONTINUOUS
 10
0.600846
 20
-1.044051
  0
VERTEX
  8
央铋_1
 62
    39
  6
CONTINUOUS
 10
0.551173
 20
-0.999566
  0
VERTEX
  8
央铋_1
 62
    39
  6
CONTINUOUS
 10
0.506922
 20
-0.960273
  0
VERTEX
  8
央铋_1
 62
    39
  6
CONTINUOUS
 10
0.466443
 20
-0.925466
  0
VERTEX
  8
央铋_1
 62
    39
  6
CONTINUOUS
 10
0.428090
 20
-0.894440
  0
VERTEX
  8
央铋_1
 62
    39
  6
CONTINUOUS
 10
0.390213
 20
-0.866488
  0
VERTEX
  8
央铋_1
 62
    39
  6
CONTINUOUS
 10
0.351163
 20
-0.840905
  0
VERTEX
  8
央铋_1
 62
    39
  6
CONTINUOUS
 10
0.309293
 20
-0.816985
  0
VERTEX
  8
央铋_1
 62
    39
  6
CONTINUOUS
 10
0.262954
 20
-0.794022
  0
VERTEX
  8
央铋_1
 62
    39
  6
CONTINUOUS
 10
0.210498
 20
-0.771311
  0
VERTEX
  8
央铋_1
 62
    39
  6
CONTINUOUS
 10
0.150276
 20
-0.748146
  0
VERTEX
  8
央铋_1
 62
    39
  6
CONTINUOUS
 10
0.095164
 20
-0.719076
  0
VERTEX
  8
央铋_1
 62
    39
  6
CONTINUOUS
 10
0.057337
 20
-0.681013
  0
VERTEX
  8
央铋_1
 62
    39
  6
CONTINUOUS
 10
0.034090
 20
-0.636796
  0
VERTEX
  8
央铋_1
 62
    39
  6
CONTINUOUS
 10
0.022717
 20
-0.589264
  0
VERTEX
  8
央铋_1
 62
    39
  6
CONTINUOUS
 10
0.020514
 20
-0.541256
  0
VERTEX
  8
央铋_1
 62
    39
  6
CONTINUOUS
 10
0.024777
 20
-0.495610
  0
VERTEX
  8
央铋_1
 62
    39
  6
CONTINUOUS
 10
0.032801
 20
-0.455166
  0
VERTEX
  8
央铋_1
 62
    39
  6
CONTINUOUS
 10
0.041880
 20
-0.422763
  0
VERTEX
  8
央铋_1
 62
    39
  6
CONTINUOUS
 10
0.049312
 20
-0.401239
  0
VERTEX
  8
央铋_1
 62
    39
  6
CONTINUOUS
 10
0.052390
 20
-0.393433
  0
SEQEND
  8
0
  0
ENDSEC
  0
EOF
